<svg width="1440" height="994" viewBox="0 0 1440 994" fill="none" xmlns="http://www.w3.org/2000/svg">
<g opacity="0.35">
<path d="M1101.68 -99.0049L887.303 165.648L799.47 60.6247L784.735 42.7115L979.758 -197.816C1003.74 -227.575 1045.63 -235.521 1078.86 -216.741H1079.44C1121.62 -192.616 1132.16 -136.854 1101.83 -99.1494" fill="white"/>
<path d="M1443.34 1118.37L1126.68 739.3L1123.21 746.523C1112.95 767.181 1100.1 786.972 1085.07 805.463L1032.2 870.615L1323.29 1218.77C1347.85 1248.09 1389.74 1255.31 1422.82 1236.25C1464.57 1211.69 1474.54 1155.49 1443.48 1118.37M1412.13 -28.367H1411.55C1378.33 -47.4359 1336.29 -39.4905 1312.17 -9.7315L1031.04 337.553L1045.63 355.033L1081.46 398.082C1098.51 418.451 1112.95 440.409 1123.64 462.945C1124.65 464.823 1125.52 466.846 1126.39 468.724L1434.38 88.791C1464.86 51.2311 1454.17 -4.5309 1412.28 -28.367" fill="white"/>
<path d="M1018.62 693.94C1011.98 707.375 1003.89 719.943 994.065 732.078L955.927 779.172L920.534 822.944L814.933 953.248L779.54 996.73L714.677 1076.91L679.284 1120.68L444.823 1410.18C420.843 1439.94 378.949 1447.88 345.723 1429.1L345.145 1428.67C302.962 1404.98 292.417 1348.93 322.753 1311.37L576.716 998.031L612.109 954.259L677.261 874.083L712.51 830.6L825.912 690.617L855.671 653.924C866.939 639.911 873.006 624.021 873.728 607.408V605.819C873.873 603.652 873.873 601.485 873.584 599.462V598.162C872.573 582.271 866.216 566.236 854.66 552.657L823.167 514.953L712.221 381.904L676.25 338.999L609.509 259.256L573.538 216.062L310.619 -98.4296C279.704 -135.556 289.383 -191.751 331.277 -216.31C343.556 -223.533 357.135 -227 370.57 -227C393.106 -227 415.498 -217.321 430.81 -198.83L673.794 91.9702L709.765 135.164L776.506 214.907L812.477 257.812L920.389 386.96L956.36 429.865L991.753 472.481C1002.88 485.771 1012.12 499.64 1018.91 514.23C1048.09 571.148 1047.95 636.733 1018.77 693.94" fill="white"/>
<path d="M1018.62 693.94C1011.98 707.375 1003.89 719.943 994.065 732.078L955.927 779.172L920.534 822.944L814.933 953.248L779.54 996.73L714.677 1076.91L679.284 1120.68L444.823 1410.18C420.843 1439.94 378.949 1447.88 345.723 1429.1L345.145 1428.67C302.962 1404.98 292.417 1348.93 322.753 1311.37L576.716 998.031L612.109 954.259L677.261 874.083L712.51 830.6L825.912 690.617L855.671 653.924C866.939 639.911 873.006 624.021 873.728 607.408V605.819C873.873 603.652 873.873 601.485 873.584 599.462V598.162C872.573 582.271 866.216 566.236 854.66 552.657L823.167 514.953L712.221 381.904L676.25 338.999L609.509 259.256L573.538 216.062L310.619 -98.4296C279.704 -135.556 289.383 -191.751 331.277 -216.31C343.556 -223.533 357.135 -227 370.57 -227C393.106 -227 415.498 -217.321 430.81 -198.83L673.794 91.9702L709.765 135.164L776.506 214.907L812.477 257.812L920.389 386.96L956.36 429.865L991.753 472.481C1002.88 485.771 1012.12 499.64 1018.91 514.23C1048.09 571.148 1047.95 636.733 1018.77 693.94" fill="white"/>
<path d="M1018.62 693.94C1011.98 707.375 1003.89 719.943 994.065 732.078L955.927 779.172L920.534 822.944L814.933 953.248L779.54 996.73L714.677 1076.91L679.284 1120.68L444.823 1410.18C420.843 1439.94 378.949 1447.88 345.723 1429.1L345.145 1428.67C302.962 1404.98 292.417 1348.93 322.753 1311.37L576.716 998.031L612.109 954.259L677.261 874.083L712.51 830.6L825.912 690.617L855.671 653.924C866.939 639.911 873.006 624.021 873.728 607.408V605.819C873.873 603.652 873.873 601.485 873.584 599.462V598.162C872.573 582.271 866.216 566.236 854.66 552.657L823.167 514.953L712.221 381.904L676.25 338.999L609.509 259.256L573.538 216.062L310.619 -98.4296C279.704 -135.556 289.383 -191.751 331.277 -216.31C343.556 -223.533 357.135 -227 370.57 -227C393.106 -227 415.498 -217.321 430.81 -198.83L673.794 91.9702L709.765 135.164L776.506 214.907L812.477 257.812L920.389 386.96L956.36 429.865L991.753 472.481C1002.88 485.771 1012.12 499.64 1018.91 514.23C1048.09 571.148 1047.95 636.733 1018.77 693.94" fill="white"/>
<path d="M551.139 614.197C550.995 656.524 535.827 698.995 506.501 735.111L468.363 782.205L112.411 1221.95C88.2858 1251.56 46.2476 1259.5 13.0215 1240.87L12.4437 1240.44C-29.5945 1216.74 -40.2846 1160.69 -9.65888 1123.13L368.107 656.668C386.02 634.566 389.054 606.396 376.486 582.849L370.274 569.269C359.584 551.356 326.936 507.44 317.401 496.172L-18.7599 93.8476C-49.8191 56.5766 -39.9957 0.525711 1.89802 -23.8882C14.3217 -31.1113 27.901 -34.5784 41.3359 -34.5784C63.8719 -34.5784 85.9744 -24.8995 101.432 -6.55289L454.495 416.141C456.228 418.307 461.573 424.519 468.363 433.331C486.421 456.301 516.613 496.75 529.615 527.087C542.905 551.79 549.839 578.659 550.995 605.24C550.851 608.418 550.85 611.308 551.139 614.341" fill="white"/>
</g>
</svg>
