<svg width="417" height="701" viewBox="0 0 417 701" fill="none" xmlns="http://www.w3.org/2000/svg">
<g clip-path="url(#clip0_483_4258)">
<rect width="417" height="704" fill="#B3CAFD" fill-opacity="0.1"/>
<mask id="mask0_483_4258" style="mask-type:luminance" maskUnits="userSpaceOnUse" x="-282" y="-563" width="1015" height="1015">
<path d="M89.5196 450.704L-281.317 -191.604L360.777 -562.317L731.613 79.9908L89.5196 450.704Z" fill="white" stroke="white"/>
</mask>
<g mask="url(#mask0_483_4258)">
<path d="M-219.705 -184.824C-208.215 -141.746 -188.96 -84.7249 -155.307 -22.6626C-129.499 24.9327 -39.7152 190.516 28.8392 179.166C121.365 163.846 106.143 -195.102 154.962 -197.451C202.999 -199.763 234.447 146.422 305.887 148.812C372.835 151.053 429.103 -150.25 463.137 -144.09C496.013 -138.139 449.992 144.161 509.981 161.628C536.308 169.293 576.035 123.935 591.588 86.3884C612.579 35.7155 596.325 -16.1027 578.505 -72.9114C568.784 -103.9 557.431 -128.699 548.569 -146.003" stroke="#D1DBF3" stroke-width="0.5" stroke-miterlimit="10"/>
<path d="M-218.448 -176.305C-207.066 -135.125 -188.402 -80.3275 -155.278 -20.9255C-130.006 24.3984 -42.3854 183.703 24.5274 172.008C115.131 155.857 101.562 -192.605 149.983 -194.575C194.673 -196.394 224.312 80.0262 281.777 137.65C288.445 144.364 295.448 148.133 302.855 148.214C369.23 149.067 424.167 -148.52 460.397 -143.145C488.629 -138.958 463.854 52.5485 488.796 126.449C493.785 141.278 500.797 151.393 510.674 154.341C536.718 162.175 575.644 118.737 591.099 82.8679C612.108 34.6305 596.849 -14.6917 579.918 -68.9903C570.755 -98.4491 559.918 -122.008 551.424 -138.485" stroke="#D1DBF3" stroke-width="0.5" stroke-miterlimit="10"/>
<path d="M-217.192 -167.786C-205.918 -128.503 -187.848 -75.9214 -155.252 -19.1895C-130.512 23.8701 -45.0159 177.112 20.2142 164.85C108.952 148.169 96.9827 -190.085 145.003 -191.701C191.361 -193.26 221.033 81.959 278.785 137.676C285.487 144.141 292.461 147.701 299.822 147.613C365.622 147.079 419.212 -146.766 457.654 -142.203C486.726 -138.752 464.526 47.6366 489.677 119.726C494.686 134.178 501.651 144.058 511.363 147.054C537.142 155.005 575.109 113.475 590.607 79.3456C611.446 33.4579 597.371 -13.2825 581.327 -65.0714C572.724 -93.0007 562.401 -115.32 554.276 -130.969" stroke="#D1DBF3" stroke-width="0.5" stroke-miterlimit="10"/>
<path d="M-215.935 -159.267C-204.769 -121.882 -187.294 -71.505 -155.224 -17.4531C-131.015 23.3494 -47.6624 170.404 15.9018 157.692C102.75 140.323 92.4058 -187.545 140.023 -188.826C188.051 -190.118 217.69 83.9517 275.795 137.702C282.523 143.926 289.475 147.249 296.79 147.013C362.011 144.909 414.244 -144.987 454.914 -141.26C484.817 -138.52 465.202 42.7249 490.561 113.003C495.592 127.078 502.505 136.735 512.055 139.766C537.562 147.862 574.646 108.241 590.118 75.8239C610.88 32.3216 597.896 -11.8731 582.741 -61.1515C574.696 -87.5513 564.888 -108.63 557.132 -123.453" stroke="#D1DBF3" stroke-width="0.5" stroke-miterlimit="10"/>
<path d="M-214.677 -150.747C-203.62 -115.26 -186.742 -67.0792 -155.196 -15.7168C-131.515 22.8387 -50.308 163.692 11.5902 150.534C96.5522 132.473 87.8316 -184.986 135.044 -185.951C184.745 -186.967 214.343 85.9444 272.805 137.728C279.559 143.711 286.489 146.812 293.758 146.413C358.398 142.867 409.265 -143.184 452.173 -140.318C482.899 -138.265 466.016 37.7599 491.444 106.28C496.524 119.968 503.356 129.411 512.747 132.477C537.98 140.719 574.184 103.001 589.628 72.3005C610.315 31.1784 598.42 -10.4649 584.152 -57.2336C576.666 -82.1035 567.372 -101.943 559.986 -115.939" stroke="#D1DBF3" stroke-width="0.5" stroke-miterlimit="10"/>
<path d="M-213.421 -142.229C-202.473 -108.639 -186.194 -62.6409 -155.169 -13.9807C-132.014 22.3372 -52.9533 156.975 7.27664 143.375C90.3561 124.617 83.2574 -182.41 130.064 -183.077C181.439 -183.809 210.99 87.9371 269.813 137.755C276.592 143.496 283.501 146.375 290.724 145.813C354.781 140.831 404.278 -141.358 449.429 -139.375C480.974 -137.99 466.72 32.8339 492.325 99.5566C497.432 112.865 504.206 122.088 513.436 125.19C538.396 133.579 573.719 97.7586 589.136 68.7795C609.75 30.0317 598.83 -9.02047 585.563 -53.3131C578.576 -76.636 569.856 -95.2525 562.84 -108.421" stroke="#D1DBF3" stroke-width="0.5" stroke-miterlimit="10"/>
<path d="M-212.163 -133.709C-201.324 -102.017 -185.644 -58.1889 -155.141 -12.2443C-132.507 21.8477 -55.5965 150.253 2.96474 136.218C84.164 116.756 78.6862 -179.818 125.084 -180.202C178.136 -180.64 207.631 89.9315 266.823 137.781C273.627 143.281 280.515 145.938 287.692 145.213C351.164 138.799 399.288 -139.511 446.688 -138.432C479.048 -137.696 467.425 27.9073 493.207 92.8337C498.341 105.762 505.058 114.766 514.127 117.902C538.814 126.441 573.258 92.5106 588.646 65.2566C609.187 28.8761 599.326 -7.60414 586.974 -49.3939C580.532 -71.1837 572.34 -88.5636 565.693 -100.905" stroke="#D1DBF3" stroke-width="0.5" stroke-miterlimit="10"/>
<path d="M-210.906 -125.19C-200.175 -95.3959 -185.095 -53.7205 -155.113 -10.5072C-132.994 21.3733 -58.2366 143.527 -1.34653 129.061C77.9759 108.89 74.1152 -177.211 120.106 -177.326C174.835 -177.462 204.271 91.9287 263.835 137.809C270.662 143.068 277.53 145.503 284.662 144.614C347.547 136.772 394.297 -137.642 443.949 -137.489C477.123 -137.387 468.129 22.9809 494.092 86.1116C499.253 98.6609 505.912 107.444 514.82 110.615C539.235 119.303 572.8 87.2584 588.158 61.7354C608.63 27.7146 599.824 -6.18691 588.388 -45.4744C582.492 -65.731 574.828 -81.8744 568.55 -93.3895" stroke="#D1DBF3" stroke-width="0.5" stroke-miterlimit="10"/>
<path d="M-209.65 -116.671C-199.027 -88.7746 -184.546 -49.236 -155.086 -8.77115C-133.475 20.9123 -60.8774 136.793 -5.66109 121.902C71.787 101.016 69.5429 -174.594 115.125 -174.451C171.531 -174.275 200.899 93.9264 260.841 137.835C267.692 142.853 274.54 145.069 281.627 144.015C343.925 134.75 389.299 -135.755 441.205 -136.546C475.191 -137.063 468.827 18.0538 494.972 79.3887C500.159 91.5579 506.761 100.125 515.509 103.328C539.65 112.168 572.339 81.9994 587.665 58.2146C608.072 26.5444 600.313 -4.76732 589.797 -41.5531C584.444 -60.2765 577.31 -75.1842 571.402 -85.8717" stroke="#D1DBF3" stroke-width="0.5" stroke-miterlimit="10"/>
<path d="M-208.392 -108.152C-197.878 -82.1531 -183.992 -44.7296 -155.058 -7.03475C-133.946 20.4702 -63.5158 130.054 -9.97275 114.745C65.6037 93.1356 64.9733 -171.963 110.145 -171.576C168.231 -171.079 197.525 95.9273 257.851 137.862C264.724 142.64 271.553 144.634 278.595 143.415C340.304 132.733 384.305 -133.851 438.464 -135.602C473.262 -136.728 469.527 13.1269 495.855 72.6669C501.068 84.4566 507.612 92.8049 516.2 96.0407C540.067 105.035 571.884 76.7349 587.175 54.6928C607.522 25.3627 600.802 -3.34869 591.208 -37.6342C586.398 -54.8238 579.795 -68.4955 574.256 -78.3563" stroke="#D1DBF3" stroke-width="0.5" stroke-miterlimit="10"/>
<path d="M-207.135 -99.6329C-196.729 -75.5315 -183.432 -40.2004 -155.03 -5.2984C-134.404 20.0494 -66.1526 123.308 -14.285 107.586C59.4218 85.2463 60.4031 -169.322 105.166 -168.701C164.932 -167.873 194.145 97.93 254.862 137.889C261.757 142.427 268.566 144.199 275.564 142.815C336.683 130.72 379.312 -131.931 435.724 -134.659C471.336 -136.382 470.226 8.19989 496.739 65.9438C501.977 77.3538 508.466 85.4856 516.893 88.7534C540.487 97.9022 571.435 71.4625 586.686 51.1717C606.98 24.1716 601.288 -1.92885 592.622 -33.7132C588.353 -49.3698 582.281 -61.8043 577.112 -70.8387" stroke="#D1DBF3" stroke-width="0.5" stroke-miterlimit="10"/>
<path d="M-205.878 -91.1145C-195.581 -68.9108 -182.861 -35.6471 -155.003 -3.56286C-134.846 19.6512 -68.7897 116.553 -18.5973 100.428C53.243 77.3479 55.8341 -166.671 100.186 -165.827C161.632 -164.657 190.759 99.9363 251.871 137.915C258.787 142.213 265.577 143.765 272.531 142.214C333.06 128.712 374.318 -129.995 432.982 -133.718C469.407 -136.029 470.92 3.27065 497.621 59.2202C502.884 70.2504 509.316 78.1653 517.583 81.4643C540.903 90.769 570.991 66.18 586.196 47.6477C606.447 22.965 601.766 -0.511465 594.034 -29.7957C590.305 -43.9188 584.767 -55.117 579.967 -63.3235" stroke="#D1DBF3" stroke-width="0.5" stroke-miterlimit="10"/>
<path d="M-204.622 -82.5948C-194.433 -62.2888 -182.275 -31.0637 -154.976 -1.826C-135.267 19.2824 -71.4266 109.792 -22.9105 93.2701C47.0645 69.441 51.2633 -164.011 95.206 -162.952C158.332 -161.43 187.367 101.948 248.88 137.942C255.817 142.001 262.589 143.333 269.497 141.615C329.437 126.711 369.325 -128.044 430.239 -132.774C467.479 -135.665 471.611 -1.65626 498.501 52.4982C503.79 63.148 510.166 70.8485 518.272 74.1774C541.318 83.6407 570.554 60.8916 585.703 44.1271C605.925 21.7481 602.233 0.91037 595.442 -25.8751C592.25 -38.4653 587.248 -48.4275 582.818 -55.8064" stroke="#D1DBF3" stroke-width="0.5" stroke-miterlimit="10"/>
<path d="M-203.364 -74.0756C-193.284 -55.6672 -181.663 -26.4513 -154.947 -0.0888476C-135.658 18.9447 -74.0613 103.023 -27.2219 86.1133C40.8899 61.5245 46.6947 -161.342 90.2276 -160.076C155.033 -158.192 183.972 103.964 245.891 137.968C252.847 141.789 259.603 142.9 266.467 141.015C325.817 124.714 364.337 -126.082 427.499 -131.831C465.554 -135.295 472.302 -6.58438 499.386 45.7753C504.698 56.045 511.019 63.5309 518.965 66.8902C541.736 76.5141 570.134 55.5944 585.215 40.6057C605.426 20.518 602.695 2.33255 596.857 -21.9549C594.199 -33.0129 589.736 -41.7375 585.676 -48.2897" stroke="#D1DBF3" stroke-width="0.5" stroke-miterlimit="10"/>
<path d="M-202.107 -65.5572C-192.135 -49.0465 -181.015 -21.8094 -154.92 1.6467C-136.013 18.6414 -76.6976 96.2434 -31.5341 78.9548C34.715 53.5945 42.1251 -158.666 85.2482 -157.202C151.733 -154.944 180.571 105.985 242.9 137.995C249.876 141.577 256.616 142.469 263.434 140.416C322.196 122.723 359.35 -124.106 424.757 -130.887C463.63 -134.918 472.989 -11.5104 500.268 39.0536C505.603 48.9437 511.868 56.2152 519.656 59.6031C542.151 69.3892 569.729 50.2917 584.724 37.084C604.946 19.2743 603.135 3.75635 598.267 -18.0352C596.14 -27.5621 592.22 -35.0482 588.529 -40.7736" stroke="#D1DBF3" stroke-width="0.5" stroke-miterlimit="10"/>
<path d="M-200.851 -57.0376C-190.987 -42.4245 -180.317 -17.1395 -154.893 3.38351C-136.319 18.3764 -79.3352 89.4549 -35.8473 71.7968C28.5388 45.6537 37.5539 -155.983 80.2685 -154.327C148.432 -151.683 177.164 108.013 239.909 138.022C246.905 141.367 253.628 142.037 260.402 139.816C318.576 120.736 354.367 -122.12 422.016 -129.945C461.707 -134.536 473.673 -16.4377 501.151 32.3303C506.509 41.8407 512.72 48.8994 520.347 52.3148C542.567 62.2652 569.345 44.9834 584.234 33.562C604.496 18.0201 603.548 5.18016 599.679 -14.1157C598.076 -22.113 594.706 -28.3589 591.383 -33.2576" stroke="#D1DBF3" stroke-width="0.5" stroke-miterlimit="10"/>
<path d="M-199.593 -48.5183C-189.838 -35.8029 -175.978 -16.6119 -154.865 5.11993C-134.514 14.6383 -81.9732 82.6564 -40.16 64.6397C22.3623 37.6995 32.9829 -153.293 75.2881 -151.451C145.131 -148.411 173.753 110.048 236.918 138.049C243.932 141.158 250.64 141.607 257.369 139.216C314.956 118.754 349.385 -120.123 419.274 -129.002C459.786 -134.149 474.354 -21.364 502.033 25.6083C507.415 34.7396 513.569 41.5845 521.038 45.0285C542.982 55.1449 567.702 37.3406 583.744 30.0408C605.851 19.9815 603.915 6.60437 601.091 -10.1949C600.004 -16.6662 597.19 -21.6687 594.237 -25.7399" stroke="#D1DBF3" stroke-width="0.5" stroke-miterlimit="10"/>
<path d="M-198.336 -39.9992C-188.689 -29.1814 -175.166 -12.3544 -154.837 6.85625C-134.827 13.9942 -84.613 75.8472 -44.4721 57.4812C16.1842 29.7294 28.412 -150.597 70.3087 -148.576C141.829 -145.127 170.339 112.089 233.927 138.075C240.959 140.949 247.653 141.177 254.336 138.616C311.339 116.777 344.406 -118.116 416.532 -128.059C457.866 -133.757 475.03 -26.2897 502.915 18.8859C508.317 27.6377 514.418 34.2704 521.729 37.7406C543.395 48.0255 567.555 31.8404 583.253 26.5192C605.254 19.062 604.191 8.02329 602.502 -6.27576C601.917 -11.2321 599.675 -14.9798 597.091 -18.2242" stroke="#D1DBF3" stroke-width="0.5" stroke-miterlimit="10"/>
<path d="M-197.08 -31.4803C-187.542 -22.5601 -174.356 -8.09792 -154.81 8.59229C-135.142 13.3511 -87.2571 69.0257 -48.7855 50.3233C10.0011 21.7442 23.8397 -147.895 65.3285 -145.702C138.525 -141.832 166.921 114.137 230.936 138.101C237.986 140.74 244.666 140.747 251.303 138.015C307.725 114.803 339.429 -116.101 413.79 -127.117C455.947 -133.362 475.703 -31.2152 503.797 12.1617C509.22 20.5345 515.268 26.9555 522.419 30.4515C543.806 40.907 568.362 29.0928 582.762 22.9951C603.378 14.2673 604.266 9.40911 603.913 -2.35781C603.809 -5.82886 602.159 -8.29212 599.945 -10.7098" stroke="#D1DBF3" stroke-width="0.5" stroke-miterlimit="10"/>
<path d="M-195.822 -22.9611C-186.393 -15.9386 -173.543 -3.84036 -154.782 10.3294C-135.454 12.7078 -89.9027 62.1938 -53.0967 43.1665C3.81595 13.7436 19.2687 -145.187 60.3499 -142.826C135.223 -138.521 163.501 116.196 227.947 138.13C235.015 140.535 241.682 140.32 248.273 137.418C304.114 112.837 334.458 -114.075 411.05 -126.172C454.033 -132.961 476.374 -36.1347 504.681 5.44132C510.124 13.435 516.118 19.6447 523.111 23.1669C544.219 33.795 568.099 23.8404 582.273 19.4767C603.094 13.067 606.272 10.6835 605.326 1.56464C606.22 -0.361673 604.645 -1.59992 602.801 -3.19083" stroke="#D1DBF3" stroke-width="0.5" stroke-miterlimit="10"/>
<path d="M-194.565 -14.4419C-185.244 -9.31699 -172.732 0.416465 -154.753 12.0654C-135.767 12.0646 -91.3016 57.4669 -57.4083 36.0076C-4.33725 2.40561 14.6969 -142.476 55.3707 -139.952C131.918 -135.201 160.079 118.261 224.957 138.155C232.041 140.327 238.695 139.889 245.24 136.817C300.505 110.872 329.488 -112.045 408.31 -125.23C452.118 -132.559 477.04 -41.0557 505.565 -1.28247C511.027 6.33313 516.968 12.3318 523.804 15.8777C544.631 26.6805 567.862 18.6233 581.785 15.9533C602.847 11.9137 606.797 12.0916 606.74 5.48324C608.192 5.08642 607.132 5.0876 605.657 4.32423" stroke="#D1DBF3" stroke-width="0.5" stroke-miterlimit="10"/>
<path d="M-193.309 -5.92307C-184.096 -2.69584 -171.921 4.67363 -154.726 13.8013C-136.081 11.4209 -93.9366 50.5186 -61.7212 28.8496C-10.6034 -5.53355 10.1224 -139.759 50.3913 -137.077C128.611 -131.865 156.656 120.336 221.967 138.182C229.068 140.122 235.71 139.462 242.208 136.217C296.899 108.912 324.521 -110.005 405.567 -124.287C450.205 -132.153 477.699 -45.973 506.447 -8.00482C511.926 -0.766891 517.815 5.02156 524.494 8.5903C545.038 19.5709 567.632 13.4556 581.293 12.4315C602.612 10.833 607.319 13.502 608.15 9.40294C610.16 10.5353 609.615 11.7775 608.509 11.8409" stroke="#D1DBF3" stroke-width="0.5" stroke-miterlimit="10"/>
<path d="M-192.051 2.59617C-182.947 3.92575 -171.11 8.93089 -154.698 15.5377C-136.394 10.7769 -97.8766 41.6215 -66.0336 21.6912C-14.7961 -10.3769 5.54865 -137.039 45.4116 -134.202C125.304 -128.517 153.231 122.42 218.976 138.208C226.094 139.918 232.725 139.034 239.176 135.617C293.296 106.955 319.558 -107.96 402.826 -123.344C448.293 -131.745 478.356 -50.8873 507.329 -14.7277C512.826 -7.86702 518.662 -2.28957 525.184 1.30318C545.446 12.4632 567.399 8.33685 580.803 8.91018C602.373 9.83357 607.843 14.9118 609.561 13.3229C612.13 15.9847 612.1 18.4672 611.364 19.3573" stroke="#D1DBF3" stroke-width="0.5" stroke-miterlimit="10"/>
<path d="M-190.794 11.1154C-181.798 10.5473 -170.298 13.1877 -154.671 17.2741C-136.707 10.1341 -100.55 34.7382 -70.3455 14.5336C-21.0257 -18.4578 0.974459 -134.314 40.4321 -131.327C121.994 -125.154 149.809 124.514 215.986 138.235C223.121 139.714 229.74 138.606 236.144 135.017C289.697 105.002 314.597 -105.908 400.085 -122.402C446.384 -131.334 479.007 -55.798 508.212 -21.451C513.726 -14.9662 519.51 -9.60024 525.875 -5.98507C545.851 5.35779 567.144 3.2594 580.312 5.3874C602.097 8.90885 608.366 16.3206 610.973 17.2417C614.101 21.433 614.585 25.1557 614.218 26.8726" stroke="#D1DBF3" stroke-width="0.5" stroke-miterlimit="10"/>
<path d="M-189.538 19.6343C-180.65 17.1685 -169.487 17.4449 -154.644 19.0101C-137.022 9.4897 -103.237 27.842 -74.6598 7.37527C-27.2762 -26.5603 -3.60353 -131.585 35.4513 -128.452C118.681 -121.776 146.385 126.617 212.994 138.261C220.146 139.511 226.754 138.179 233.11 134.417C286.1 103.052 309.636 -103.851 397.342 -121.459C444.474 -130.922 479.652 -60.7034 509.093 -28.1741C514.622 -22.0645 520.355 -16.9092 526.565 -13.2737C546.255 -1.74557 566.851 -1.7882 579.821 1.86501C601.765 8.04483 609.29 17.3632 612.383 21.1605C616.681 26.4373 617.068 31.8435 617.071 34.3879" stroke="#D1DBF3" stroke-width="0.5" stroke-miterlimit="10"/>
<path d="M-188.28 28.1534C-179.501 23.7901 -168.676 21.7017 -154.615 20.7473C-137.334 8.84724 -105.934 20.9357 -78.9711 0.218406C-33.5471 -34.6836 -8.17928 -128.852 30.4722 -125.577C115.368 -118.382 142.965 128.73 210.004 138.288C217.174 139.311 223.77 137.753 230.078 133.818C282.508 101.105 304.682 -101.787 394.602 -120.515C442.568 -130.505 480.294 -65.6014 509.977 -34.8959C515.52 -29.1608 521.203 -24.2166 527.258 -20.5596C546.657 -8.84432 566.52 -6.81678 579.333 -1.6551C601.368 7.2226 609.734 18.9171 613.797 25.082C618.42 32.0976 619.556 38.5347 619.928 41.9059" stroke="#D1DBF3" stroke-width="0.5" stroke-miterlimit="10"/>
<path d="M-187.023 36.6727C-178.352 30.4112 -167.864 25.9593 -154.588 22.4837C-137.648 8.20366 -108.646 14.0174 -83.2832 -6.93918C-39.8444 -42.8305 -12.7558 -126.116 25.4937 -122.701C112.052 -114.974 139.55 130.852 207.015 138.315C214.202 139.11 220.788 137.328 227.047 133.218C278.922 99.1596 299.73 -99.7187 391.861 -119.572C440.664 -130.089 480.931 -70.4933 510.86 -41.6183C516.418 -36.2566 522.049 -31.5239 527.949 -27.8471C547.057 -15.9413 566.146 -11.846 578.842 -5.17709C600.902 6.40984 610.181 20.4033 615.209 29.0016C620.261 37.6416 622.041 45.2245 622.782 49.4224" stroke="#D1DBF3" stroke-width="0.5" stroke-miterlimit="10"/>
<path d="M-185.767 45.1915C-177.204 37.0324 -162.542 35.5481 -154.561 24.2197C-141.016 4.99362 -111.377 7.08874 -87.5966 -14.0979C-46.1761 -50.9994 -17.3361 -123.378 20.5131 -119.827C108.733 -111.55 136.136 132.982 204.023 138.342C211.229 138.911 217.805 136.902 224.013 132.619C275.336 97.2174 294.778 -97.6442 389.118 -118.628C438.757 -129.669 481.561 -75.3767 511.74 -48.3398C517.311 -43.3498 522.892 -38.8294 528.638 -35.134C547.452 -23.0343 565.733 -16.8835 578.351 -8.6982C600.375 5.59008 610.638 21.8628 616.619 32.9217C622.147 43.1435 624.524 51.9144 625.634 56.9391" stroke="#D1DBF3" stroke-width="0.5" stroke-miterlimit="10"/>
<path d="M-184.509 53.7107C-176.055 43.6539 -165.162 35.7876 -154.533 25.956C-136.154 8.95529 -114.126 0.152584 -91.9083 -21.2556C-52.5427 -59.187 -21.9148 -120.636 15.5336 -116.952C105.411 -108.11 132.727 135.121 201.033 138.369C208.258 138.712 214.822 136.476 220.981 132.019C271.757 95.276 289.83 -95.5671 386.376 -117.686C436.855 -129.25 482.189 -80.2515 512.624 -55.0631C518.206 -50.4431 523.736 -46.1359 529.33 -42.4216C547.847 -30.1262 565.294 -21.937 577.86 -12.2203C599.805 4.74725 611.106 23.3069 618.031 36.8412C624.06 48.6261 627.009 58.6028 628.489 64.455" stroke="#D1DBF3" stroke-width="0.5" stroke-miterlimit="10"/>
<path d="M-183.252 62.23C-174.907 50.2748 -164.625 39.4734 -154.505 27.6925C-137.117 7.44927 -116.896 -6.78911 -96.221 -28.4139C-58.952 -67.3931 -26.4959 -117.892 10.5546 -114.077C102.088 -104.653 129.325 137.267 198.043 138.395C205.287 138.514 211.85 136.062 217.949 131.419C268.255 93.4318 284.886 -93.4861 383.636 -116.744C434.954 -128.83 482.816 -85.1155 513.507 -61.7868C519.102 -57.5347 524.58 -53.4422 530.022 -49.7103C548.239 -37.2158 564.833 -27.0103 577.371 -15.7431C599.204 3.87585 611.585 24.7411 619.443 40.7596C625.987 54.0974 629.495 65.291 631.344 71.9699" stroke="#D1DBF3" stroke-width="0.5" stroke-miterlimit="10"/>
<path d="M-181.996 70.7488C-173.759 56.8959 -164.19 43.2984 -154.478 29.4285C-138.165 6.12932 -119.691 -13.7343 -100.534 -35.572C-65.4089 -75.6115 -31.0785 -115.145 5.57383 -111.203C98.759 -101.179 125.928 139.53 195.051 138.421C202.315 138.328 208.862 135.63 214.915 130.819C264.646 91.4444 279.971 -91.2771 380.893 -115.801C433.067 -128.345 483.437 -89.9675 514.388 -68.5101C519.994 -64.6235 525.421 -60.7477 530.712 -56.999C548.626 -44.3023 564.356 -32.1015 576.879 -19.2664C598.58 2.97341 612.03 26.1874 620.854 44.678C627.892 59.5767 631.979 71.979 634.198 79.4847" stroke="#D1DBF3" stroke-width="0.5" stroke-miterlimit="10"/>
<path d="M-180.738 79.268C-134.704 -9.92952 -67.0531 -115.917 0.594865 -108.327C95.4287 -97.6863 122.535 141.582 192.061 138.449C258.962 135.432 262.397 -86.1886 378.152 -114.857C431.153 -127.983 484.06 -94.804 515.271 -75.2313C599.195 -22.6018 628.673 60.0263 637.052 87.0041" stroke="#D1DBF3" stroke-width="0.5" stroke-miterlimit="10"/>
</g>
<path d="M147.975 247L144.475 234.876L144.027 233.056L143.579 234.876L140.107 247H135.823L130.027 227.96H134.059L137.671 241.372L138.119 243.304L138.567 241.372L142.403 227.96H145.903L149.683 241.372L150.159 243.36L150.579 241.372L154.191 227.96H157.999L152.231 247H147.975ZM162.614 236.92H159.002C159.478 233.588 161.914 231.572 165.694 231.572C169.866 231.572 171.994 234.036 171.994 237.508V243.332C171.994 245.18 172.162 246.216 172.442 247H168.718C168.522 246.496 168.438 245.768 168.41 244.956C167.178 246.692 165.33 247.42 163.538 247.42C160.598 247.42 158.498 245.964 158.498 243.08C158.498 241.036 159.646 239.496 161.942 238.74C163.93 238.068 165.862 237.9 168.382 237.872V237.508C168.382 235.576 167.458 234.54 165.47 234.54C163.762 234.54 162.838 235.492 162.614 236.92ZM162.11 242.884C162.11 244.032 163.006 244.76 164.462 244.76C166.674 244.76 168.382 242.968 168.382 240.728V240.084C163.286 240.168 162.11 241.372 162.11 242.884ZM175.412 247V231.992H178.996V234.008C179.976 232.384 181.544 231.572 183.448 231.572C186.444 231.572 188.488 233.364 188.488 237.004V247H184.904V237.732C184.904 235.688 184.036 234.54 182.216 234.54C180.228 234.54 178.996 236.276 178.996 238.292V247H175.412ZM192.267 242.324V234.764H190.335V231.992H192.267V228.548H195.851V231.992H199.015V234.764H195.851V242.016C195.851 243.584 196.299 244.424 198.287 244.424H198.959V247.056C198.567 247.252 197.755 247.42 196.775 247.42C193.723 247.42 192.267 245.684 192.267 242.324ZM206.502 247V231.992H210.086V233.924C211.038 232.356 212.494 231.572 214.258 231.572C216.162 231.572 217.646 232.412 218.402 234.12C219.41 232.412 221.006 231.572 222.938 231.572C225.822 231.572 227.782 233.364 227.782 237.004V247H224.198V237.732C224.198 235.688 223.442 234.54 221.846 234.54C220.054 234.54 218.934 236.276 218.934 238.292V247H215.35V237.732C215.35 235.688 214.594 234.54 212.998 234.54C211.206 234.54 210.086 236.276 210.086 238.292V247H206.502ZM237.58 247.42C233.128 247.42 230.384 244.424 230.384 239.524C230.384 234.428 233.212 231.572 237.58 231.572C242.004 231.572 244.748 234.596 244.748 239.524C244.748 244.564 241.92 247.42 237.58 247.42ZM237.58 244.452C239.848 244.452 241.052 242.716 241.052 239.524C241.052 236.332 239.82 234.54 237.58 234.54C235.284 234.54 234.08 236.304 234.08 239.524C234.08 242.688 235.312 244.452 237.58 244.452ZM247.353 247V231.992H250.937V234.176C251.917 232.384 253.429 231.572 255.053 231.572C255.669 231.572 256.229 231.74 256.509 231.992V235.1C256.033 234.96 255.501 234.904 254.857 234.904C252.141 234.904 250.937 236.528 250.937 239.02V247H247.353ZM271.819 242.1C271.007 245.572 268.319 247.42 264.735 247.42C260.199 247.42 257.427 244.424 257.427 239.524C257.427 234.428 260.227 231.572 264.595 231.572C268.991 231.572 271.707 234.54 271.707 239.384V240.224H261.123C261.291 242.968 262.551 244.48 264.735 244.48C266.415 244.48 267.563 243.696 268.039 242.1H271.819ZM264.595 234.512C262.691 234.512 261.543 235.716 261.207 237.984H267.955C267.619 235.744 266.471 234.512 264.595 234.512ZM286.548 232.916C286.548 237.676 281.2 237.088 281.2 241.764H277.588C277.588 235.744 282.964 236.164 282.964 232.916C282.964 231.404 282.012 230.424 280.276 230.424C278.344 230.424 277.336 231.46 277.084 233.448H273.5C273.976 229.808 276.412 227.54 280.304 227.54C284.42 227.54 286.548 230.004 286.548 232.916ZM277.42 247V243.5H281.368V247H277.42ZM60.2315 284V264.96H64.0115V284H60.2315ZM67.527 284V268.992H71.111V271.008C72.091 269.384 73.659 268.572 75.563 268.572C78.559 268.572 80.603 270.364 80.603 274.004V284H77.019V274.732C77.019 272.688 76.151 271.54 74.331 271.54C72.343 271.54 71.111 273.276 71.111 275.292V284H67.527ZM96.8979 274.312H93.3139C92.9779 272.352 91.8019 271.54 90.2899 271.54C88.0779 271.54 86.9019 273.304 86.9019 276.524C86.9019 279.688 88.1339 281.452 90.4019 281.452C91.9419 281.452 93.0339 280.612 93.3979 278.904H97.0099C96.3379 282.656 93.7059 284.42 90.3179 284.42C85.8939 284.42 83.2059 281.396 83.2059 276.524C83.2059 271.428 85.9779 268.572 90.2899 268.572C93.7059 268.572 96.3939 270.476 96.8979 274.312ZM99.4918 284V268.992H103.076V271.176C104.056 269.384 105.568 268.572 107.192 268.572C107.808 268.572 108.368 268.74 108.648 268.992V272.1C108.172 271.96 107.64 271.904 106.996 271.904C104.28 271.904 103.076 273.528 103.076 276.02V284H99.4918ZM123.957 279.1C123.145 282.572 120.457 284.42 116.873 284.42C112.337 284.42 109.565 281.424 109.565 276.524C109.565 271.428 112.365 268.572 116.733 268.572C121.129 268.572 123.845 271.54 123.845 276.384V277.224H113.261C113.429 279.968 114.689 281.48 116.873 281.48C118.553 281.48 119.701 280.696 120.177 279.1H123.957ZM116.733 271.512C114.829 271.512 113.681 272.716 113.345 274.984H120.093C119.757 272.744 118.609 271.512 116.733 271.512ZM130.007 273.92H126.395C126.871 270.588 129.307 268.572 133.087 268.572C137.259 268.572 139.387 271.036 139.387 274.508V280.332C139.387 282.18 139.555 283.216 139.835 284H136.111C135.915 283.496 135.831 282.768 135.803 281.956C134.571 283.692 132.723 284.42 130.931 284.42C127.991 284.42 125.891 282.964 125.891 280.08C125.891 278.036 127.039 276.496 129.335 275.74C131.323 275.068 133.255 274.9 135.775 274.872V274.508C135.775 272.576 134.851 271.54 132.863 271.54C131.155 271.54 130.231 272.492 130.007 273.92ZM129.503 279.884C129.503 281.032 130.399 281.76 131.855 281.76C134.067 281.76 135.775 279.968 135.775 277.728V277.084C130.679 277.168 129.503 278.372 129.503 279.884ZM145.8 273.024C145.8 276.468 155.264 273.556 155.264 279.576C155.264 282.46 152.604 284.42 148.852 284.42C145.156 284.42 142.496 282.712 141.964 279.1H145.548C145.8 280.724 147.088 281.648 148.964 281.648C150.728 281.648 151.652 280.892 151.652 279.8C151.652 276.44 142.384 279.324 142.384 273.248C142.384 270.812 144.288 268.572 148.208 268.572C151.652 268.572 154.256 270.196 154.704 273.92H151.12C150.84 272.1 149.776 271.372 148.068 271.372C146.64 271.372 145.8 272.072 145.8 273.024ZM171.399 279.1C170.587 282.572 167.899 284.42 164.315 284.42C159.779 284.42 157.007 281.424 157.007 276.524C157.007 271.428 159.807 268.572 164.175 268.572C168.571 268.572 171.287 271.54 171.287 276.384V277.224H160.703C160.871 279.968 162.131 281.48 164.315 281.48C165.995 281.48 167.143 280.696 167.619 279.1H171.399ZM164.175 271.512C162.271 271.512 161.123 272.716 160.787 274.984H167.535C167.199 272.744 166.051 271.512 164.175 271.512ZM180.875 290.58C180.147 290.58 179.391 290.384 179.027 290.244V287.5H179.867C181.491 287.5 182.247 287.164 183.395 284.308L183.759 283.384L177.851 268.992H181.687L185.019 277.7L185.635 279.884L186.251 277.7L189.443 268.992H193.111L186.503 285.484C184.963 289.376 183.619 290.58 180.875 290.58ZM201.007 284.42C196.555 284.42 193.811 281.424 193.811 276.524C193.811 271.428 196.639 268.572 201.007 268.572C205.431 268.572 208.175 271.596 208.175 276.524C208.175 281.564 205.347 284.42 201.007 284.42ZM201.007 281.452C203.275 281.452 204.479 279.716 204.479 276.524C204.479 273.332 203.247 271.54 201.007 271.54C198.711 271.54 197.507 273.304 197.507 276.524C197.507 279.688 198.739 281.452 201.007 281.452ZM220.105 277.7V268.992H223.689V284H220.105V281.984C219.125 283.636 217.585 284.42 215.737 284.42C212.769 284.42 210.781 282.628 210.781 279.016V268.992H214.365V278.288C214.365 280.332 215.205 281.452 216.969 281.452C218.901 281.452 220.105 279.716 220.105 277.7ZM226.996 284V268.992H230.58V271.176C231.56 269.384 233.072 268.572 234.696 268.572C235.312 268.572 235.872 268.74 236.152 268.992V272.1C235.676 271.96 235.144 271.904 234.5 271.904C231.784 271.904 230.58 273.528 230.58 276.02V284H226.996ZM247.013 284H243.429V263.84H247.013V270.672C247.965 269.328 249.309 268.572 250.961 268.572C254.853 268.572 257.261 271.568 257.261 276.468C257.261 281.564 254.797 284.42 250.961 284.42C249.309 284.42 247.937 283.72 247.013 282.404V284ZM250.317 271.54C248.161 271.54 247.013 273.276 247.013 276.468C247.013 279.66 248.189 281.452 250.317 281.452C252.445 281.452 253.593 279.688 253.593 276.468C253.593 273.304 252.417 271.54 250.317 271.54ZM269.187 277.7V268.992H272.771V284H269.187V281.984C268.207 283.636 266.667 284.42 264.819 284.42C261.851 284.42 259.863 282.628 259.863 279.016V268.992H263.447V278.288C263.447 280.332 264.287 281.452 266.051 281.452C267.983 281.452 269.187 279.716 269.187 277.7ZM279.074 273.024C279.074 276.468 288.538 273.556 288.538 279.576C288.538 282.46 285.878 284.42 282.126 284.42C278.43 284.42 275.77 282.712 275.238 279.1H278.822C279.074 280.724 280.362 281.648 282.238 281.648C284.002 281.648 284.926 280.892 284.926 279.8C284.926 276.44 275.658 279.324 275.658 273.248C275.658 270.812 277.562 268.572 281.482 268.572C284.926 268.572 287.53 270.196 287.978 273.92H284.394C284.114 272.1 283.05 271.372 281.342 271.372C279.914 271.372 279.074 272.072 279.074 273.024ZM290.98 267.312V263.84H294.564V267.312H290.98ZM290.98 284V268.992H294.564V284H290.98ZM297.843 284V268.992H301.427V271.008C302.407 269.384 303.975 268.572 305.879 268.572C308.875 268.572 310.919 270.364 310.919 274.004V284H307.335V274.732C307.335 272.688 306.467 271.54 304.647 271.54C302.659 271.54 301.427 273.276 301.427 275.292V284H297.843ZM327.914 279.1C327.102 282.572 324.414 284.42 320.83 284.42C316.294 284.42 313.522 281.424 313.522 276.524C313.522 271.428 316.322 268.572 320.69 268.572C325.086 268.572 327.802 271.54 327.802 276.384V277.224H317.218C317.386 279.968 318.646 281.48 320.83 281.48C322.51 281.48 323.658 280.696 324.134 279.1H327.914ZM320.69 271.512C318.786 271.512 317.638 272.716 317.302 274.984H324.05C323.714 272.744 322.566 271.512 320.69 271.512ZM333.488 273.024C333.488 276.468 342.952 273.556 342.952 279.576C342.952 282.46 340.292 284.42 336.54 284.42C332.844 284.42 330.184 282.712 329.652 279.1H333.236C333.488 280.724 334.776 281.648 336.652 281.648C338.416 281.648 339.34 280.892 339.34 279.8C339.34 276.44 330.072 279.324 330.072 273.248C330.072 270.812 331.976 268.572 335.896 268.572C339.34 268.572 341.944 270.196 342.392 273.92H338.808C338.528 272.1 337.464 271.372 335.756 271.372C334.328 271.372 333.488 272.072 333.488 273.024ZM348.39 273.024C348.39 276.468 357.854 273.556 357.854 279.576C357.854 282.46 355.194 284.42 351.442 284.42C347.746 284.42 345.086 282.712 344.554 279.1H348.138C348.39 280.724 349.678 281.648 351.554 281.648C353.318 281.648 354.242 280.892 354.242 279.8C354.242 276.44 344.974 279.324 344.974 273.248C344.974 270.812 346.878 268.572 350.798 268.572C354.242 268.572 356.846 270.196 357.294 273.92H353.71C353.43 272.1 352.366 271.372 350.658 271.372C349.23 271.372 348.39 272.072 348.39 273.024Z" fill="#25282B"/>
<g clip-path="url(#clip1_483_4258)">
<path d="M283.217 464.564C274.801 464.564 267.976 457.739 267.976 449.324C267.976 440.908 274.801 434.083 283.217 434.083H316.971C325.413 434.083 332.602 427.517 332.907 419.081C333.225 410.222 326.135 402.94 317.349 402.94H117.964C109.118 402.94 101.948 410.109 101.948 418.955C101.948 427.802 109.118 434.971 117.964 434.971H147.212C155.482 434.971 162.526 441.405 162.824 449.668C163.135 458.349 156.191 465.479 147.577 465.479H31.8557C18.0995 465.479 6.94751 476.631 6.94751 490.387C6.94751 504.143 18.0995 515.295 31.8557 515.295H220.625L323.822 515.01H394.949C408.877 515.01 420.175 503.719 420.175 489.784C420.175 475.855 408.884 464.557 394.949 464.557H283.21L283.217 464.564Z" stroke="#B6C8EF" stroke-width="0.662627" stroke-linecap="round" stroke-linejoin="round"/>
<path d="M132.217 406.213C129.222 403.351 127.347 399.315 127.347 394.842C127.347 386.155 134.391 379.118 143.071 379.118C151.751 379.118 158.795 386.162 158.795 394.842C158.795 403.523 151.751 410.567 143.071 410.567C140.255 410.567 137.611 409.824 135.325 408.526L135.338 408.539L130.627 411.163L132.191 406.2L132.204 406.213H132.217Z" fill="white" stroke="#B6C8EF" stroke-width="0.662627" stroke-miterlimit="10"/>
<path d="M150.731 401.303L135.636 401.124L133.947 390.277L152.189 390.244L150.731 401.303Z" fill="#9FBDFD"/>
<path d="M152.189 390.244L133.947 390.277L143.051 382.756L152.189 390.244Z" fill="#9FBDFD"/>
<path d="M149.156 389.179L136.705 389.2L136.723 399.716L149.174 399.694L149.156 389.179Z" fill="white"/>
<path d="M133.947 390.277L133.966 402.131L143.078 396.605L133.947 390.277Z" fill="#E3F1FC"/>
<path d="M152.189 390.244L152.209 402.105L143.078 396.605L152.189 390.244Z" fill="#E3F1FC"/>
<path d="M152.209 402.105L133.967 402.131L143.071 394.617L152.209 402.105Z" fill="#E3F1FC"/>
<path d="M133.967 402.131L143.071 394.617L152.209 402.105" stroke="#9FBDFD" stroke-width="0.331314" stroke-linejoin="round"/>
<path d="M144.383 395.691L152.189 390.244" stroke="#9FBDFD" stroke-width="0.331314" stroke-linejoin="round"/>
<path d="M141.766 395.697L133.947 390.277" stroke="#9FBDFD" stroke-width="0.331314" stroke-linejoin="round"/>
<path d="M143.078 369.331V374.858" stroke="#B6C8EF" stroke-width="0.662627" stroke-linecap="round" stroke-linejoin="round"/>
<path d="M117.719 394.69H123.245" stroke="#B6C8EF" stroke-width="0.662627" stroke-linecap="round" stroke-linejoin="round"/>
<path d="M162.91 394.69H168.436" stroke="#B6C8EF" stroke-width="0.662627" stroke-linecap="round" stroke-linejoin="round"/>
<path d="M129.05 380.669L125.147 376.759" stroke="#B6C8EF" stroke-width="0.662627" stroke-linecap="round" stroke-linejoin="round"/>
<path d="M157.099 380.669L161.008 376.759" stroke="#B6C8EF" stroke-width="0.662627" stroke-linecap="round" stroke-linejoin="round"/>
<path d="M268.314 424.614C272.687 420.433 275.424 414.542 275.424 408.015C275.424 395.333 265.14 385.055 252.464 385.055C239.788 385.055 229.504 395.339 229.504 408.015C229.504 420.692 239.788 430.976 252.464 430.976C256.579 430.976 260.435 429.889 263.775 427.994L263.755 428.014L270.633 431.844L268.347 424.594L268.327 424.614H268.314Z" fill="white" stroke="#B6C8EF" stroke-width="0.662627" stroke-miterlimit="10"/>
<path d="M252.457 370.756V378.827" stroke="#B6C8EF" stroke-width="0.662627" stroke-linecap="round" stroke-linejoin="round"/>
<path d="M289.485 407.784H281.414" stroke="#B6C8EF" stroke-width="0.662627" stroke-linecap="round" stroke-linejoin="round"/>
<path d="M223.501 407.784H215.43" stroke="#B6C8EF" stroke-width="0.662627" stroke-linecap="round" stroke-linejoin="round"/>
<path d="M272.932 387.308L278.644 381.603" stroke="#B6C8EF" stroke-width="0.662627" stroke-linecap="round" stroke-linejoin="round"/>
<path d="M231.982 387.308L226.277 381.603" stroke="#B6C8EF" stroke-width="0.662627" stroke-linecap="round" stroke-linejoin="round"/>
<path d="M241.126 403.728C241.126 397.473 246.196 392.397 252.457 392.397C258.719 392.397 263.788 397.466 263.788 403.728C263.788 406.22 262.98 408.526 261.615 410.401C259.998 412.839 255.797 415.589 255.797 417.239V419.121C255.797 419.499 255.492 419.804 255.115 419.804H249.8C249.423 419.804 249.118 419.499 249.118 419.121V417.239C249.118 415.589 244.917 412.839 243.3 410.401C241.935 408.532 241.126 406.226 241.126 403.728Z" fill="#FFCD5C"/>
<path d="M253.743 419.611C253.73 419.327 253.524 414.781 253.889 410.792C253.445 410.845 252.968 410.871 252.457 410.871C251.947 410.871 251.47 410.845 251.026 410.792C251.39 414.774 251.185 419.327 251.172 419.611H250.973C250.973 419.532 251.185 414.827 250.814 410.765C247.454 410.295 245.95 408.393 245.679 406.597C245.52 405.551 245.877 404.504 246.533 404.113C246.931 403.874 247.408 403.828 247.918 403.973C248.72 404.205 249.482 404.895 249.953 405.816C250.503 406.882 250.821 408.658 251.006 410.586C251.457 410.639 251.94 410.673 252.457 410.673C252.974 410.673 253.458 410.646 253.908 410.586C254.094 408.658 254.419 406.889 254.962 405.816C255.433 404.888 256.195 404.199 256.996 403.973C257.507 403.828 257.984 403.874 258.381 404.113C259.031 404.504 259.388 405.551 259.236 406.597C258.964 408.393 257.46 410.295 254.101 410.765C253.73 414.827 253.942 419.532 253.942 419.598H253.743V419.611ZM257.566 404.093C257.407 404.093 257.235 404.119 257.063 404.166C256.314 404.378 255.598 405.034 255.154 405.908C254.631 406.935 254.313 408.665 254.127 410.56C257.348 410.096 258.785 408.281 259.044 406.571C259.19 405.617 258.865 404.629 258.288 404.285C258.076 404.159 257.831 404.093 257.573 404.093H257.566ZM247.355 404.093C247.097 404.093 246.851 404.159 246.639 404.285C246.063 404.629 245.738 405.61 245.884 406.571C246.142 408.287 247.58 410.096 250.801 410.56C250.615 408.671 250.304 406.935 249.774 405.908C249.323 405.034 248.607 404.378 247.865 404.166C247.693 404.113 247.521 404.093 247.362 404.093H247.355Z" fill="white"/>
<path d="M261.9 404.378C261.542 404.378 261.25 404.086 261.25 403.728C261.25 399.7 258.527 396.194 254.624 395.207C254.273 395.121 254.067 394.763 254.154 394.418C254.24 394.067 254.598 393.862 254.942 393.948C259.422 395.081 262.549 399.103 262.549 403.735C262.549 404.093 262.258 404.384 261.9 404.384V404.378Z" fill="#FFEE99"/>
<path d="M252.239 394.266C252.239 394.624 252.53 394.915 252.888 394.915C253.246 394.915 253.538 394.624 253.538 394.266C253.538 393.908 253.246 393.617 252.888 393.617C252.53 393.617 252.239 393.908 252.239 394.266Z" fill="#FFEE99"/>
<g style="mix-blend-mode:multiply" opacity="0.55">
<path d="M263.762 404.398C263.139 409.043 259.389 413.853 252.457 413.853C245.526 413.853 241.915 408.817 241.153 404.398C241.286 406.631 242.061 408.698 243.307 410.401C244.923 412.839 249.124 415.589 249.124 417.239V419.121C249.124 419.499 249.429 419.804 249.807 419.804H255.121C255.499 419.804 255.804 419.499 255.804 419.121V417.239C255.804 415.589 260.005 412.839 261.622 410.401C262.861 408.698 263.643 406.637 263.775 404.398H263.762Z" fill="#FFCD5C"/>
</g>
<path d="M256.062 418.041H248.853V421.48C248.853 422.043 249.012 422.593 249.31 423.064C249.88 423.958 250.867 424.502 251.927 424.502H252.988C254.048 424.502 255.035 423.958 255.605 423.064C255.903 422.587 256.062 422.043 256.062 421.48V418.041Z" fill="#28364C"/>
<path d="M256.062 420.354C256.062 420.354 256.022 420.354 256.003 420.354L248.793 419.353C248.548 419.32 248.376 419.095 248.409 418.843C248.442 418.591 248.674 418.425 248.919 418.458L256.128 419.459C256.374 419.492 256.546 419.717 256.513 419.969C256.48 420.195 256.288 420.36 256.069 420.36L256.062 420.354Z" fill="#475577"/>
<path d="M256.062 421.924C256.062 421.924 256.022 421.924 256.003 421.924L248.793 420.923C248.548 420.89 248.376 420.665 248.409 420.413C248.442 420.168 248.674 419.996 248.919 420.029L256.128 421.029C256.374 421.063 256.546 421.288 256.513 421.54C256.48 421.765 256.288 421.931 256.069 421.931L256.062 421.924Z" fill="#475577"/>
<path d="M255.777 423.475C255.777 423.475 255.737 423.475 255.717 423.475L248.886 422.527C248.641 422.494 248.468 422.269 248.501 422.017C248.535 421.772 248.766 421.599 249.012 421.632L255.843 422.58C256.088 422.613 256.261 422.838 256.228 423.09C256.194 423.316 256.002 423.481 255.784 423.481L255.777 423.475Z" fill="#475577"/>
<path d="M340.368 449.304C340.368 450.503 339.394 451.471 338.201 451.471C337.009 451.471 336.035 450.497 336.035 449.304C336.035 448.111 337.009 447.137 338.201 447.137C339.394 447.137 340.368 448.111 340.368 449.304Z" stroke="#B6C8EF" stroke-width="0.662627" stroke-linecap="round" stroke-linejoin="round"/>
<path d="M191.801 378.714C191.801 379.913 190.827 380.881 189.634 380.881C188.441 380.881 187.467 379.907 187.467 378.714C187.467 377.521 188.441 376.547 189.634 376.547C190.827 376.547 191.801 377.521 191.801 378.714Z" stroke="#B6C8EF" stroke-width="0.662627" stroke-linecap="round" stroke-linejoin="round"/>
<path d="M215.735 427.371C215.735 428.57 214.761 429.538 213.568 429.538C212.375 429.538 211.401 428.564 211.401 427.371C211.401 426.178 212.375 425.204 213.568 425.204C214.761 425.204 215.735 426.178 215.735 427.371Z" stroke="#B6C8EF" stroke-width="0.662627" stroke-linecap="round" stroke-linejoin="round"/>
<path d="M404.676 412.992C404.676 414.191 403.702 415.159 402.509 415.159C401.317 415.159 400.343 414.185 400.343 412.992C400.343 411.799 401.317 410.825 402.509 410.825C403.702 410.825 404.676 411.799 404.676 412.992Z" stroke="#B6C8EF" stroke-width="0.662627" stroke-linecap="round" stroke-linejoin="round"/>
<path d="M39.2769 450.198C39.2769 451.398 38.3029 452.365 37.1102 452.365C35.9174 452.365 34.9434 451.391 34.9434 450.198C34.9434 449.006 35.9174 448.032 37.1102 448.032C38.3029 448.032 39.2769 449.006 39.2769 450.198Z" stroke="#B6C8EF" stroke-width="0.662627" stroke-linecap="round" stroke-linejoin="round"/>
<path d="M3.81329 460.171L-1.58713 461.615C-2.04434 461.735 -2.13711 462.437 -1.75278 462.808L2.13684 466.559C2.4549 466.87 2.91211 466.744 3.03801 466.32L4.54217 461.132C4.69458 460.615 4.26387 460.058 3.80666 460.178L3.81329 460.171Z" stroke="#B6C8EF" stroke-width="0.662627" stroke-linecap="round" stroke-linejoin="round"/>
<path d="M408.506 482.78L403.974 479.506C403.589 479.228 402.993 479.599 402.946 480.136L402.503 485.523C402.469 485.967 402.847 486.245 403.258 486.066L408.228 483.952C408.725 483.74 408.884 483.058 408.499 482.78H408.506Z" stroke="#B6C8EF" stroke-width="0.662627" stroke-linecap="round" stroke-linejoin="round"/>
<path d="M19.8025 494.8H39.0054" stroke="#B6C8EF" stroke-width="0.662627" stroke-linecap="round" stroke-linejoin="round"/>
<path d="M238.463 446.627H255.333" stroke="#B6C8EF" stroke-width="0.662627" stroke-linecap="round" stroke-linejoin="round"/>
<path d="M360.346 473.225H372.247" stroke="#B6C8EF" stroke-width="0.662627" stroke-linecap="round" stroke-linejoin="round"/>
<path d="M375.103 473.225H381.06" stroke="#B6C8EF" stroke-width="0.662627" stroke-linecap="round" stroke-linejoin="round"/>
<path d="M159.941 427.371H171.398" stroke="#B6C8EF" stroke-width="0.662627" stroke-linecap="round" stroke-linejoin="round"/>
<path d="M169.092 432.705H178.078" stroke="#B6C8EF" stroke-width="0.662627" stroke-linecap="round" stroke-linejoin="round"/>
<path d="M73.2102 410.852H82.487" stroke="#B6C8EF" stroke-width="0.662627" stroke-linecap="round" stroke-linejoin="round"/>
<path d="M80.552 407.519H86.4825" stroke="#B6C8EF" stroke-width="0.662627" stroke-linecap="round" stroke-linejoin="round"/>
<path d="M32.4651 499.326H41.7419" stroke="#B6C8EF" stroke-width="0.662627" stroke-linecap="round" stroke-linejoin="round"/>
<path d="M57.8105 417.902V421.692" stroke="#B6C8EF" stroke-width="0.662627" stroke-linecap="round" stroke-linejoin="round"/>
<path d="M59.7124 419.797H55.9155" stroke="#B6C8EF" stroke-width="0.662627" stroke-linecap="round" stroke-linejoin="round"/>
<path d="M59.7124 419.797H55.9155" stroke="#B6C8EF" stroke-width="0.662627" stroke-linecap="round" stroke-linejoin="round"/>
<path d="M230.418 461.543V465.339" stroke="#B6C8EF" stroke-width="0.662627" stroke-linecap="round" stroke-linejoin="round"/>
<path d="M232.32 463.438H228.523" stroke="#B6C8EF" stroke-width="0.662627" stroke-linecap="round" stroke-linejoin="round"/>
<path d="M232.32 463.438H228.523" stroke="#B6C8EF" stroke-width="0.662627" stroke-linecap="round" stroke-linejoin="round"/>
<path d="M317.169 377.223V381.02" stroke="#B6C8EF" stroke-width="0.662627" stroke-linecap="round" stroke-linejoin="round"/>
<path d="M319.065 379.118H315.274" stroke="#B6C8EF" stroke-width="0.662627" stroke-linecap="round" stroke-linejoin="round"/>
<path d="M319.065 379.118H315.274" stroke="#B6C8EF" stroke-width="0.662627" stroke-linecap="round" stroke-linejoin="round"/>
<path d="M389.972 454.989V458.779" stroke="#B6C8EF" stroke-width="0.662627" stroke-linecap="round" stroke-linejoin="round"/>
<path d="M391.868 456.884H388.077" stroke="#B6C8EF" stroke-width="0.662627" stroke-linecap="round" stroke-linejoin="round"/>
<path d="M391.868 456.884H388.077" stroke="#B6C8EF" stroke-width="0.662627" stroke-linecap="round" stroke-linejoin="round"/>
<path d="M100 392.762C100 392.762 99.9207 392.762 99.9075 392.762H58.6192C52.1255 392.762 50.1177 392.556 43.6306 392.742C43.5577 388.74 44.6709 384.969 46.5859 382.955C48.1563 381.298 50.8598 380.391 53.073 380.974C55.8693 381.716 57.7644 383.584 59.58 384.976C60.2228 379.463 62.4956 374.447 64.9473 373.347C69.1616 371.458 73.5614 374.453 75.5361 377.356C77.1661 379.748 78.0541 382.597 78.3854 385.473C81.0292 382.551 86.9465 380.318 89.0735 384.956C89.9085 386.778 89.8422 388.866 89.7561 390.867C93.2216 389.932 97.0913 390.661 100 392.768V392.762Z" fill="#E3F1FC"/>
<path d="M334.239 439.941C335.166 436.171 343.933 430.664 348.618 433.984C348.836 429.498 350.93 424.641 356.099 421.838C362.447 418.399 368.536 425.237 369.895 429.557C371.154 425.575 377.555 420.208 382.697 424.734C387.454 428.921 387.931 435.939 387.434 439.934H334.239V439.941Z" fill="#E3F1FC"/>
<path d="M312.299 567.371L324.147 489.658C324.438 487.769 326.062 486.371 327.977 486.371H380.271L366.939 572.201C366.038 578.019 361.188 582.114 355.198 582.114H276.617C274.443 582.114 272.687 580.352 272.687 578.185C272.687 576.011 274.45 574.255 276.617 574.255H304.175C308.323 574.255 311.683 571.413 312.299 567.377V567.371Z" fill="#C7D2EF"/>
<path d="M364.945 567.371L376.839 489.366C377.104 487.61 378.568 486.371 380.377 486.371H380.483C383.015 486.371 385.089 488.743 384.704 491.202L372.121 572.201C371.22 578.019 366.369 582.114 360.379 582.114H303.387C301.213 582.114 299.457 580.352 299.457 578.185C299.457 576.011 301.22 574.255 303.387 574.255H356.814C360.962 574.255 364.322 571.413 364.938 567.377L364.945 567.371Z" fill="#E3EDFF"/>
<path d="M327.294 582.114V629.638" stroke="#114093" stroke-width="0.662627" stroke-miterlimit="10"/>
<path d="M352.076 633.547C352.076 631.387 350.327 629.644 348.174 629.644H306.415C304.255 629.644 302.512 631.394 302.512 633.547" stroke="#114093" stroke-width="0.662627" stroke-miterlimit="10"/>
<path d="M331.568 633.547C331.568 631.387 329.819 629.644 327.665 629.644" stroke="#114093" stroke-width="0.662627" stroke-miterlimit="10"/>
<path d="M348.134 637.49C348.134 639.67 349.896 641.433 352.076 641.433C354.256 641.433 356.019 639.67 356.019 637.49C356.019 635.31 354.256 633.547 352.076 633.547C349.896 633.547 348.134 635.31 348.134 637.49Z" fill="#E3EDFF"/>
<g opacity="0.45">
<path d="M350.632 637.49C350.632 638.292 351.281 638.941 352.083 638.941C352.885 638.941 353.534 638.292 353.534 637.49C353.534 636.688 352.885 636.039 352.083 636.039C351.281 636.039 350.632 636.688 350.632 637.49Z" fill="#B7C2CE"/>
</g>
<path d="M327.619 637.49C327.619 639.67 329.381 641.433 331.562 641.433C333.742 641.433 335.504 639.67 335.504 637.49C335.504 635.31 333.742 633.547 331.562 633.547C329.381 633.547 327.619 635.31 327.619 637.49Z" fill="#E3EDFF"/>
<g opacity="0.45">
<path d="M330.117 637.49C330.117 638.292 330.766 638.941 331.568 638.941C332.37 638.941 333.019 638.292 333.019 637.49C333.019 636.688 332.37 636.039 331.568 636.039C330.766 636.039 330.117 636.688 330.117 637.49Z" fill="#B7C2CE"/>
</g>
<path d="M298.563 637.49C298.563 639.67 300.325 641.433 302.505 641.433C304.685 641.433 306.448 639.67 306.448 637.49C306.448 635.31 304.685 633.547 302.505 633.547C300.325 633.547 298.563 635.31 298.563 637.49Z" fill="#E3EDFF"/>
<g opacity="0.45">
<path d="M301.061 637.49C301.061 638.292 301.71 638.941 302.512 638.941C303.314 638.941 303.963 638.292 303.963 637.49C303.963 636.688 303.314 636.039 302.512 636.039C301.71 636.039 301.061 636.688 301.061 637.49Z" fill="#B7C2CE"/>
</g>
<path d="M199.195 567.371L187.348 489.658C187.056 487.769 185.433 486.371 183.518 486.371H131.223L144.555 572.201C145.456 578.019 150.307 582.114 156.297 582.114H234.878C237.051 582.114 238.807 580.352 238.807 578.185C238.807 576.011 237.045 574.255 234.878 574.255H207.319C203.171 574.255 199.812 571.413 199.195 567.377V567.371Z" fill="#C7D2EF"/>
<path d="M146.556 567.371L134.662 489.366C134.397 487.61 132.933 486.371 131.124 486.371H131.018C128.487 486.371 126.412 488.743 126.797 491.202L139.38 572.201C140.281 578.019 145.132 582.114 151.122 582.114H208.114C210.288 582.114 212.044 580.352 212.044 578.185C212.044 576.011 210.281 574.255 208.114 574.255H154.687C150.539 574.255 147.179 571.413 146.563 567.377L146.556 567.371Z" fill="#E3EDFF"/>
<path d="M184.207 582.114V629.638" stroke="#114093" stroke-width="0.662627" stroke-miterlimit="10"/>
<path d="M159.418 633.547C159.418 631.387 161.167 629.644 163.321 629.644H205.08C207.24 629.644 208.982 631.394 208.982 633.547" stroke="#114093" stroke-width="0.662627" stroke-miterlimit="10"/>
<path d="M179.933 633.547C179.933 631.387 181.682 629.644 183.836 629.644" stroke="#114093" stroke-width="0.662627" stroke-miterlimit="10"/>
<path d="M163.367 637.49C163.367 639.67 161.605 641.433 159.425 641.433C157.245 641.433 155.482 639.67 155.482 637.49C155.482 635.31 157.245 633.547 159.425 633.547C161.605 633.547 163.367 635.31 163.367 637.49Z" fill="#E3EDFF"/>
<g opacity="0.45">
<path d="M160.869 637.49C160.869 638.292 160.22 638.941 159.418 638.941C158.616 638.941 157.967 638.292 157.967 637.49C157.967 636.688 158.616 636.039 159.418 636.039C160.22 636.039 160.869 636.688 160.869 637.49Z" fill="#B7C2CE"/>
</g>
<path d="M183.875 637.49C183.875 639.67 182.113 641.433 179.933 641.433C177.753 641.433 175.99 639.67 175.99 637.49C175.99 635.31 177.753 633.547 179.933 633.547C182.113 633.547 183.875 635.31 183.875 637.49Z" fill="#E3EDFF"/>
<g opacity="0.45">
<path d="M181.384 637.49C181.384 638.292 180.735 638.941 179.933 638.941C179.131 638.941 178.482 638.292 178.482 637.49C178.482 636.688 179.131 636.039 179.933 636.039C180.735 636.039 181.384 636.688 181.384 637.49Z" fill="#B7C2CE"/>
</g>
<path d="M212.932 637.49C212.932 639.67 211.169 641.433 208.989 641.433C206.809 641.433 205.047 639.67 205.047 637.49C205.047 635.31 206.809 633.547 208.989 633.547C211.169 633.547 212.932 635.31 212.932 637.49Z" fill="#E3EDFF"/>
<g opacity="0.45">
<path d="M210.44 637.49C210.44 638.292 209.791 638.941 208.989 638.941C208.187 638.941 207.538 638.292 207.538 637.49C207.538 636.688 208.187 636.039 208.989 636.039C209.791 636.039 210.44 636.688 210.44 637.49Z" fill="#B7C2CE"/>
</g>
<path d="M225.157 609.858L226.973 631.811L226.781 639.014L255.015 638.868C255.704 638.868 256.261 638.305 256.254 637.616C256.254 637.099 255.93 636.635 255.446 636.456L243.267 630.857L242.564 607.977" fill="#F9A895"/>
<path d="M257.487 638.563C257.195 637.662 256.665 636.642 256.135 636.416L243.227 630.857C236.11 633.739 226.9 631.54 226.9 631.54L225.257 641.26C225.257 641.585 225.522 641.843 225.84 641.837H257.275C257.904 641.837 257.5 638.597 257.493 638.57L257.487 638.563Z" fill="#FF8D27"/>
<path d="M246.017 631.414C245.295 632.355 244.678 633.382 244.195 634.468" stroke="#DD5E17" stroke-width="0.49697" stroke-miterlimit="10"/>
<path d="M247.647 632.381C246.898 633.421 246.6 634.018 246.149 634.979" stroke="#DD5E17" stroke-width="0.49697" stroke-miterlimit="10"/>
<path d="M249.019 633.097C248.508 633.779 248.011 634.727 247.614 635.482" stroke="#DD5E17" stroke-width="0.49697" stroke-miterlimit="10"/>
<path d="M225.422 639.736L257.619 639.571" stroke="#DD5E17" stroke-width="0.49697" stroke-miterlimit="10"/>
<path d="M226.317 634.985C226.317 634.985 233.884 635.138 234.533 639.696" stroke="#DD5E17" stroke-width="0.49697" stroke-miterlimit="10"/>
<path d="M253.491 635.277C253.491 635.277 251.404 638.239 250.993 639.61" stroke="#DD5E17" stroke-width="0.49697" stroke-miterlimit="10"/>
<path d="M211.772 609.858L212.156 631.811L211.964 639.014L240.199 638.868C240.888 638.868 241.444 638.305 241.438 637.616C241.438 637.099 241.113 636.635 240.629 636.456L228.45 630.857L229.179 607.977" fill="#FFCBBB"/>
<path d="M242.677 638.563C242.385 637.662 241.855 636.642 241.325 636.416L228.417 630.857C221.301 633.739 212.09 631.54 212.09 631.54L210.447 641.26C210.447 641.585 210.712 641.843 211.03 641.837H242.465C243.094 641.837 242.69 638.597 242.684 638.57L242.677 638.563Z" fill="#FFB548"/>
<path d="M231.207 631.414C230.485 632.355 229.868 633.382 229.385 634.468" stroke="#ED841B" stroke-width="0.49697" stroke-miterlimit="10"/>
<path d="M232.83 632.381C232.082 633.421 231.783 634.018 231.333 634.979" stroke="#ED841B" stroke-width="0.49697" stroke-miterlimit="10"/>
<path d="M234.209 633.097C233.698 633.779 233.202 634.727 232.804 635.482" stroke="#ED841B" stroke-width="0.49697" stroke-miterlimit="10"/>
<path d="M210.606 639.736L242.81 639.571" stroke="#ED841B" stroke-width="0.49697" stroke-miterlimit="10"/>
<path d="M211.5 634.985C211.5 634.985 219.068 635.138 219.717 639.696" stroke="#ED841B" stroke-width="0.49697" stroke-miterlimit="10"/>
<path d="M238.675 635.277C238.675 635.277 236.587 638.239 236.177 639.61" stroke="#ED841B" stroke-width="0.49697" stroke-miterlimit="10"/>
<path d="M167.893 540.885C167.893 540.885 162.857 560.3 169.795 569.902C172.849 574.13 178.084 574.249 183.133 574.249H212.938C215.443 574.249 217.537 576.17 217.749 578.662L221.778 625.735H245.964C245.964 625.735 243.545 585.215 242.896 577.171C242.372 570.664 241.186 561.864 238.642 556.172C235.222 548.532 228.828 544.623 222.334 544.623H211.143C210.573 544.623 210.109 544.159 210.109 543.589V541.157" fill="#1A53E2"/>
<path d="M222.083 620.725H245.646" stroke="#2A36C6" stroke-width="0.49697" stroke-miterlimit="10"/>
<path d="M153.58 540.885C153.58 540.885 148.544 560.3 155.482 569.902C158.537 574.13 163.771 574.249 168.821 574.249H198.626C201.13 574.249 203.224 576.17 203.436 578.662L207.465 625.735H231.651C231.651 625.735 229.034 585.229 228.583 577.171C228.126 569.107 227.456 561.566 224.329 556.172C219.432 547.744 210.864 544.755 201.442 544.755H183.637V540.051" fill="#4868EF"/>
<path d="M157.973 542.403C157.973 542.403 154.852 559.969 159.736 565.708C162.373 568.809 167.237 568.961 170.921 568.961H203.284C205.689 568.961 207.69 570.81 207.882 573.208L212.037 625.742" stroke="#1D2EA8" stroke-width="0.49697" stroke-miterlimit="10"/>
<path d="M207.028 620.725H231.32" stroke="#1D2EA8" stroke-width="0.49697" stroke-miterlimit="10"/>
<path d="M169.39 543.476C166.998 548.956 157.225 548.532 157.225 548.532" stroke="#1D2EA8" stroke-width="0.49697" stroke-miterlimit="10"/>
<path d="M176.852 462.828C176.832 462.51 176.441 462.338 176.129 462.384C175.679 462.444 175.301 462.788 175.102 463.192C174.897 463.597 174.844 464.06 174.831 464.511C174.817 464.935 174.844 465.372 175.036 465.744C175.381 466.406 176.282 466.718 176.964 466.413" fill="#F9BBAF"/>
<path d="M177.355 457.368C177.355 457.368 174.731 467.374 176.176 469.428C178.336 472.502 183.471 472.741 185.638 471.316C187.454 470.124 188.945 463.749 188.945 462.093C188.945 457.6 179.721 455.002 177.362 457.361L177.355 457.368Z" fill="#FFCBBB"/>
<path d="M177.289 461.006C177.249 461.099 177.216 461.191 177.183 461.291C177.15 461.39 177.117 461.483 177.09 461.576C177.071 461.642 177.084 461.715 177.117 461.774C177.15 461.827 177.21 461.88 177.276 461.894C177.422 461.927 177.554 461.847 177.601 461.708C177.634 461.615 177.654 461.516 177.674 461.417C177.693 461.317 177.72 461.218 177.733 461.118C177.746 461.059 177.74 460.999 177.713 460.946C177.687 460.9 177.634 460.853 177.574 460.84C177.514 460.827 177.448 460.827 177.402 460.86L177.355 460.893C177.355 460.893 177.309 460.953 177.296 460.993L177.289 461.006Z" fill="#00276F"/>
<path d="M178.349 459.985C178.349 459.985 177.673 459.051 176.673 459.767" stroke="#00276F" stroke-width="0.331314" stroke-linecap="round" stroke-linejoin="round"/>
<path d="M182.61 462.232C182.577 462.324 182.544 462.424 182.517 462.517C182.491 462.609 182.457 462.709 182.438 462.808C182.424 462.881 182.424 462.947 182.464 463.007C182.497 463.06 182.557 463.113 182.623 463.126C182.689 463.139 182.762 463.139 182.822 463.1C182.882 463.06 182.921 463.014 182.941 462.941C182.968 462.841 182.981 462.742 183.001 462.636C183.021 462.517 183.041 462.397 183.054 462.278C183.054 462.225 183.027 462.152 182.988 462.119C182.948 462.086 182.908 462.066 182.855 462.059C182.736 462.046 182.643 462.112 182.603 462.225L182.61 462.232Z" fill="#00276F"/>
<path d="M182.378 460.476C182.378 460.476 183.478 460.111 184.598 461.423" stroke="#00276F" stroke-width="0.331314" stroke-linecap="round" stroke-linejoin="round"/>
<path d="M178.965 470.607L178.077 478.174C178.077 478.174 178.462 481.488 183.425 481.488C188.388 481.488 191.946 477.943 191.946 477.943L190.217 464.968" fill="#FFCBBB"/>
<path d="M179.25 471.866C179.25 471.866 182.696 472.542 185.068 471.27C186.937 470.263 187.613 467.937 187.613 467.937" stroke="#F7A794" stroke-width="0.662627" stroke-miterlimit="10"/>
<path d="M180.118 461.596C180.118 461.596 178.462 463.908 178.627 464.445C178.853 465.167 180.118 464.982 180.118 464.982" stroke="#F7A794" stroke-width="0.331314" stroke-linejoin="round"/>
<path d="M185.459 464.432C185.015 465.22 183.902 465.783 182.683 465.916C180.456 466.161 177.958 465.187 175.738 465.426C175.241 465.479 175.208 467.771 175.221 468.5C175.228 469.368 175.414 470.289 175.858 471.038C176.288 471.767 177.09 472.198 177.885 472.476C179.575 473.052 181.397 473.072 183.14 472.774C183.995 472.628 184.73 472.542 185.472 472.092C186.221 471.634 186.904 471.137 187.473 470.461C188.116 469.699 188.62 468.772 189.461 468.209C190.449 467.546 191.509 467.592 192.065 466.353C192.403 465.598 192.443 464.75 192.483 463.928C192.556 462.305 192.536 460.674 192.443 459.038C192.205 455.036 188.951 453.22 185.671 452.822C184.193 452.643 182.046 452.59 180.562 452.537C179.363 452.498 177.713 452.007 176.613 452.61C174.691 453.664 175.354 457.004 177.295 457.62C179.422 458.289 182.722 457.553 184.936 457.832C186.479 458.024 186.473 460.25 186.506 460.515C186.691 461.993 186.128 463.259 185.466 464.432H185.459Z" fill="#011E3B"/>
<path d="M180.635 467.579L177.296 467.181C177.296 467.181 176.746 469.587 178.76 469.746C180.622 469.898 180.635 467.579 180.635 467.579Z" fill="white"/>
<path d="M189.07 463.325C189.448 463.471 189.74 463.795 189.932 464.167C190.833 465.929 188.732 468.295 186.864 467.486C186.175 467.188 186.433 465.359 187.785 463.597C188.083 463.206 188.693 463.179 189.07 463.318V463.325Z" fill="#FFCBBB"/>
<path d="M217.53 500.313C217.53 500.313 220.307 514.838 222.354 519.728C224.402 524.618 235.607 524.154 235.607 524.154L232.042 533.941C232.042 533.941 213.395 535.724 209.433 529.17C203.794 519.834 204.066 503.182 204.066 503.182" fill="#FFCBBB"/>
<path d="M227.9 524.36C227.9 524.36 241.789 523.816 242.101 524.439C242.412 525.062 239.735 525.108 240.093 525.579C240.444 526.043 246.606 525.771 246.759 526.48C246.958 527.441 241.378 527.547 241.378 527.547C241.378 527.547 247.494 527.739 247.428 528.62C247.382 529.243 242.704 529.316 240.921 529.568C242.889 529.541 246.083 529.879 246.017 530.529C245.957 531.171 242.77 531.284 240.338 531.503C241.869 531.503 244.658 531.668 244.625 532.271C244.592 532.868 233.586 533.722 226.29 534.213" fill="#FFCBBB"/>
<path d="M191.814 475.948C213.806 479.818 219.127 502.725 219.127 502.725L203.483 507.84L194.769 485.543" fill="#FFB548"/>
<path d="M192.834 475.948C192.834 475.948 205.298 480.348 208.393 494.707C211.487 509.066 211.646 527.116 210.063 542.873C184.518 546.014 152.513 543.715 152.513 543.715C152.513 543.715 150.645 503.865 159.358 491.613C168.072 479.361 177.123 476.505 177.123 476.505L185.36 479.619L192.834 475.948Z" fill="#FFB548"/>
<path d="M176.182 533.014H204.834V534.617H174.579C174.579 533.729 175.294 533.014 176.182 533.014Z" fill="#91A9D8"/>
<path d="M239.755 534.617H199.5L207.2 509.881C207.597 508.616 208.77 507.748 210.095 507.748H246.494C247.302 507.748 247.878 508.529 247.64 509.305L239.761 534.617H239.755Z" fill="#91A9D8"/>
<path d="M241.564 534.617H201.309L209.009 509.881C209.406 508.616 210.579 507.748 211.905 507.748H248.303C249.111 507.748 249.687 508.529 249.449 509.305L241.57 534.617H241.564Z" fill="#C7D2EF"/>
<path d="M229.683 521.583C229.444 522.736 228.046 523.67 226.555 523.67C225.064 523.67 224.05 522.736 224.282 521.583C224.521 520.43 225.919 519.496 227.41 519.496C228.901 519.496 229.915 520.43 229.683 521.583Z" fill="#91A9D8"/>
<path d="M168.688 505.428C168.688 505.428 163.447 517.554 164.315 519.695C165.183 521.835 187.619 523.359 187.619 523.359L186.91 534.418C186.91 534.418 161.797 534.617 150.93 534.617C137.134 534.617 149.922 501.287 149.922 501.287" fill="#FFCBBB"/>
<path d="M180.589 522.809C180.589 522.809 197.254 523.71 197.559 524.492C197.863 525.274 194.656 525.029 195.027 525.625C195.398 526.222 202.8 526.586 202.893 527.447C203.025 528.62 196.339 528.117 196.339 528.117C196.339 528.117 203.635 529.031 203.456 530.078C203.33 530.82 197.731 530.376 195.571 530.482C197.923 530.674 201.707 531.43 201.561 532.198C201.415 532.96 197.598 532.742 194.663 532.729C196.492 532.907 199.805 533.411 199.706 534.127C199.599 534.842 186.34 534.63 177.567 534.392" fill="#FFCBBB"/>
<path d="M177.56 476.929C153.626 475.471 147.736 503.58 147.736 503.58L169.45 507.847L173.048 493.216" fill="#FFB548"/>
<path d="M178.482 474.742C181.198 477.459 185.36 479.619 185.36 479.619C185.333 479.692 183.995 482.296 182.57 484.754C182.57 484.754 177.103 480.427 175.122 476.882C175.122 476.882 177.686 475.087 178.482 474.742Z" fill="white"/>
<path d="M185.36 479.619L188.64 484.317C188.64 484.317 191.655 482.627 193.901 476.293C193.901 476.293 192.682 474.649 191.416 473.947C189.925 475.928 185.353 479.626 185.353 479.626L185.36 479.619Z" fill="white"/>
<path d="M168.814 507.714L173.028 496.635" stroke="#E2690E" stroke-width="0.662627" stroke-miterlimit="10"/>
<path d="M210.42 505.508C209.261 497.483 206.047 490.426 206.047 490.426" stroke="#E2690E" stroke-width="0.662627" stroke-miterlimit="10"/>
<path d="M291.937 539.494V642.069" stroke="#114093" stroke-width="0.662627" stroke-miterlimit="10"/>
<path d="M126.744 539.494V642.069" stroke="#114093" stroke-width="0.662627" stroke-miterlimit="10"/>
<g opacity="0.55">
<path d="M251.258 524.134C251.258 524.134 251.655 524.061 251.815 523.836C252.146 523.372 251.596 522.882 251.238 522.65C250.774 522.358 250.145 522.252 249.919 521.689C249.668 521.046 250.105 520.344 250.628 519.993C251.072 519.701 251.596 519.549 252.093 519.363C252.649 519.158 253.213 518.82 253.537 518.297C253.942 517.647 253.862 516.812 253.915 516.077C254.12 513.208 257.056 511.79 259.527 511.73C260.76 511.703 262.648 512.141 263.47 513.102C263.742 513.426 263.954 513.804 264.033 514.221C264.153 514.871 263.907 515.467 263.483 515.951C263.059 516.435 262.476 516.719 262.012 517.157C261.535 517.607 261.873 518.084 261.767 518.621C261.648 519.218 261.244 519.476 260.727 519.761C259.634 520.371 258.341 520.523 257.149 520.854C256.778 520.96 256.4 521.086 256.102 521.325C255.711 521.636 255.492 522.107 255.194 522.511C254.657 523.246 253.842 523.77 252.948 523.949" fill="url(#paint0_linear_483_4258)"/>
</g>
<path d="M258.123 531.35H255.784V530.23H258.123C258.878 530.23 259.494 529.614 259.494 528.859V526.931C259.494 526.175 258.878 525.566 258.123 525.566H255.784V524.446H258.123C259.494 524.446 260.608 525.559 260.608 526.931V528.859C260.608 530.23 259.494 531.344 258.123 531.344V531.35Z" fill="#E8EAEF"/>
<path d="M248.091 522.869H257.54V530.23C257.54 532.47 255.724 534.286 253.485 534.286H252.146C249.906 534.286 248.091 532.47 248.091 530.23V522.869Z" fill="#E8EAEF"/>
<path d="M246.56 532.695C246.56 532.695 246.653 534.915 250.105 534.915H255.525C258.978 534.915 259.07 532.695 259.07 532.695H246.56Z" fill="#CFDAE5"/>
<path d="M297.536 534.617H119.408V540.534H297.536V534.617Z" fill="#F0F6FF"/>
<path d="M264.928 534.597L262.98 534.61L254.359 508.847C254.16 508.357 254.511 507.827 255.042 507.82C255.552 507.82 256.016 508.125 256.208 508.596L264.928 534.591V534.597Z" fill="#7D97D3"/>
<path d="M295.939 533.014H263.941V534.617H297.542C297.542 533.729 296.827 533.014 295.939 533.014Z" fill="#7D97D3"/>
<path d="M93.8642 444.241L94.6262 451.862C94.6262 451.862 94.0166 454.015 89.8022 454.486C84.6934 455.049 82.4802 451.159 82.4802 451.159L83.5139 444.082" fill="#F49C84"/>
<path d="M96.7201 434.812C96.7201 434.812 99.7285 444.361 95.4611 446.872C91.5914 449.151 85.1175 445.6 84.7398 444.394C84.3621 443.188 82.6459 432.904 85.1109 432.135C89.4909 430.763 95.4413 430.704 96.7201 434.812Z" fill="#F49C84"/>
<path d="M94.1425 447.839C94.1425 447.839 90.0873 448.893 87.0657 446.223" stroke="#C45F47" stroke-width="0.49697" stroke-miterlimit="10"/>
<path d="M99.5032 429.372C98.9996 428.511 98.1382 427.848 97.1508 427.649C96.2099 427.464 95.1563 427.636 94.3413 427.126C94.1293 426.993 93.9503 426.821 93.7383 426.682C93.0624 426.238 92.1811 426.191 91.4059 426.41C90.6306 426.629 89.9348 427.079 89.2987 427.576C88.8349 427.941 88.371 428.338 87.8078 428.53C86.7807 428.882 85.6542 428.464 84.5742 428.577C83.3417 428.703 82.2218 429.584 81.8044 430.75C81.3803 431.943 81.6454 433.334 81.0291 434.441C80.7111 435.018 80.1743 435.468 79.949 436.084C79.6442 436.906 79.9623 437.827 80.3864 438.602C80.7773 439.311 81.2478 439.981 81.4731 440.769C81.6387 441.352 81.7249 441.949 81.9237 442.525C82.3014 443.645 82.9905 444.652 84.2627 444.765C84.7133 444.805 85.2103 444.831 85.5814 444.566C85.9458 444.301 86.0717 443.824 86.1247 443.38C86.2109 442.658 86.1645 441.916 85.9856 441.206C86.4229 441.445 86.8337 441.843 87.3241 441.77C87.4831 441.743 87.5958 441.617 87.7084 441.505C88.7686 440.444 87.5626 438.735 87.4433 437.635C87.3042 436.422 88.4439 435.23 89.6565 435.316C90.1866 435.349 90.6968 435.587 91.2269 435.541C92.2606 435.455 92.9498 434.375 93.957 434.116C94.8846 433.878 95.8653 434.143 96.7996 434.163C98.4165 434.196 99.8809 432.738 99.9471 431.121C99.967 430.505 99.8013 429.909 99.4965 429.379L99.5032 429.372Z" fill="#173789"/>
<path d="M86.5885 441.041C86.2241 440.146 85.588 439.06 84.594 439.669C84.2429 439.888 84.0441 440.345 83.9115 440.789C83.4543 442.273 84.5211 444.559 85.9723 444.347C86.6813 444.241 87.0723 443.4 87.3638 442.711" fill="#F49C84"/>
<path d="M93.8775 438.622C93.8775 438.622 95.2226 441.054 94.9973 441.558C94.6925 442.234 93.4932 441.916 93.4932 441.916" stroke="#C45F47" stroke-width="0.49697" stroke-miterlimit="10"/>
<path d="M92.8105 443.612L96.0309 443.221C96.0309 443.221 96.2695 445.5 94.8249 445.845C93.0491 446.269 92.8172 443.605 92.8172 443.605L92.8105 443.612Z" fill="white"/>
<path d="M95.8786 438.105C95.8985 438.205 95.9184 438.304 95.9383 438.404C95.9582 438.503 95.9847 438.602 96.0112 438.695C96.031 438.761 96.0708 438.814 96.1304 438.854C96.1834 438.887 96.2696 438.901 96.3292 438.881C96.4684 438.834 96.5479 438.702 96.5148 438.556C96.4883 438.457 96.4551 438.364 96.422 438.271C96.3889 438.178 96.3557 438.079 96.316 437.986C96.2895 437.926 96.2696 437.88 96.21 437.847C96.1636 437.82 96.0907 437.807 96.0377 437.827C95.9847 437.847 95.9317 437.88 95.8985 437.933C95.8654 437.993 95.8654 438.046 95.8786 438.105Z" fill="#00276F"/>
<path d="M95.2556 436.959C95.2556 436.959 95.9315 436.025 96.9321 436.74" stroke="#00276F" stroke-width="0.331314" stroke-linecap="round" stroke-linejoin="round"/>
<path d="M90.5443 439.272C90.5576 439.391 90.5775 439.51 90.5974 439.629C90.6172 439.729 90.6305 439.835 90.657 439.934C90.6769 440.001 90.7232 440.06 90.7763 440.093C90.8293 440.126 90.9154 440.14 90.9751 440.12C91.0347 440.1 91.101 440.06 91.1341 440.001C91.1672 439.934 91.1738 439.875 91.1606 439.802C91.1407 439.702 91.1142 439.61 91.0811 439.51C91.0479 439.411 91.0214 439.318 90.9883 439.225C90.9485 439.119 90.8558 439.046 90.7365 439.06C90.6901 439.06 90.6371 439.086 90.604 439.119C90.5642 439.159 90.5311 439.219 90.5377 439.278L90.5443 439.272Z" fill="#00276F"/>
<path d="M91.2269 437.456C91.2269 437.456 90.1269 437.092 89.0071 438.404" stroke="#00276F" stroke-width="0.331314" stroke-linecap="round" stroke-linejoin="round"/>
<path d="M98.3501 609.858L101.08 631.811L100.888 639.014L129.123 638.868C129.812 638.868 130.368 638.305 130.362 637.616C130.362 637.099 130.037 636.635 129.553 636.456L117.374 630.857L115.757 607.977" fill="#F49C84"/>
<path d="M131.515 638.563C131.223 637.662 130.693 636.642 130.163 636.417L117.255 630.857C110.138 633.739 100.928 631.54 100.928 631.54L99.2844 641.26C99.2844 641.585 99.5495 641.843 99.8675 641.837H131.303C131.932 641.837 131.528 638.597 131.521 638.57L131.515 638.563Z" fill="#2B88F7"/>
<path d="M120.044 631.414C119.322 632.355 118.706 633.382 118.222 634.468" stroke="#1340BF" stroke-width="0.49697" stroke-miterlimit="10"/>
<path d="M121.675 632.381C120.926 633.421 120.628 634.018 120.177 634.979" stroke="#1340BF" stroke-width="0.49697" stroke-miterlimit="10"/>
<path d="M123.046 633.097C122.536 633.779 122.039 634.727 121.641 635.482" stroke="#1340BF" stroke-width="0.49697" stroke-miterlimit="10"/>
<path d="M99.4502 639.736L131.647 639.571" stroke="#1340BF" stroke-width="0.49697" stroke-miterlimit="10"/>
<path d="M100.345 634.985C100.345 634.985 107.912 635.138 108.561 639.696" stroke="#1340BF" stroke-width="0.49697" stroke-miterlimit="10"/>
<path d="M127.519 635.277C127.519 635.277 125.432 638.239 125.021 639.61" stroke="#1340BF" stroke-width="0.49697" stroke-miterlimit="10"/>
<path d="M111.603 515.368C116.274 548.95 119.839 628.273 119.839 628.273H94.1623C94.1623 628.273 90.1203 569.902 85.9524 533.51C79.0147 519.913 76.225 510.55 77.4641 504.845" fill="#223082"/>
<path d="M97.4687 628.273C97.4687 628.273 93.4267 569.902 89.2588 533.51" stroke="#0D1735" stroke-width="0.49697" stroke-miterlimit="10"/>
<path d="M63.4295 609.858L61.826 631.811L61.6338 639.014L89.8683 638.868C90.5575 638.868 91.1141 638.305 91.1074 637.616C91.1074 637.099 90.7828 636.635 90.299 636.456L78.12 630.857L80.8367 607.977" fill="#F49C84"/>
<path d="M92.267 638.563C91.9755 637.662 91.4454 636.642 90.9153 636.417L78.0073 630.857C70.8907 633.739 61.6802 631.54 61.6802 631.54L60.0369 641.26C60.0369 641.585 60.3019 641.843 60.62 641.837H92.055C92.6845 641.837 92.2803 638.597 92.2737 638.57L92.267 638.563Z" fill="#2B88F7"/>
<path d="M80.7968 631.414C80.0746 632.355 79.4583 633.382 78.9746 634.468" stroke="#1340BF" stroke-width="0.49697" stroke-miterlimit="10"/>
<path d="M82.427 632.381C81.6782 633.421 81.38 634.018 80.9294 634.979" stroke="#1340BF" stroke-width="0.49697" stroke-miterlimit="10"/>
<path d="M83.7986 633.097C83.2883 633.779 82.7914 634.727 82.3938 635.482" stroke="#1340BF" stroke-width="0.49697" stroke-miterlimit="10"/>
<path d="M60.1958 639.736L92.3995 639.571" stroke="#1340BF" stroke-width="0.49697" stroke-miterlimit="10"/>
<path d="M61.0903 634.985C61.0903 634.985 68.6575 635.138 69.3069 639.696" stroke="#1340BF" stroke-width="0.49697" stroke-miterlimit="10"/>
<path d="M88.2713 635.277C88.2713 635.277 86.184 638.239 85.7732 639.61" stroke="#1340BF" stroke-width="0.49697" stroke-miterlimit="10"/>
<path d="M61.9917 512.26C59.8846 518.018 59.3876 528.19 61.6803 537.937C61.8327 538.593 61.9056 539.262 61.8724 539.931C59.8713 580.252 57.8105 628.273 57.8105 628.273H83.1759C83.1759 628.273 92.7443 528.11 94.6261 511.525" fill="#223082"/>
<path d="M65.9676 512.26C63.8604 518.018 63.3634 528.19 65.6561 537.937C65.8085 538.593 65.8814 539.262 65.8483 539.931C63.8471 580.252 61.7864 628.273 61.7864 628.273" stroke="#0D1735" stroke-width="0.49697" stroke-miterlimit="10"/>
<path d="M89.1926 565.9C89.1926 565.9 93.0624 526.593 94.2551 517.256" stroke="#0D1735" stroke-width="0.49697" stroke-miterlimit="10"/>
<path d="M64.397 530.144C64.397 530.144 71.5268 528.693 75.2309 521.418" stroke="#0D1735" stroke-width="0.49697" stroke-miterlimit="10"/>
<path d="M92.9827 528.561C92.9827 528.561 95.4675 528.163 95.7326 527.235C95.9976 526.308 97.3229 518.164 97.3229 518.164" stroke="#0D1735" stroke-width="0.49697" stroke-miterlimit="10"/>
<path d="M105.387 519.695C105.387 519.695 107.07 527.699 113.107 527.997" stroke="#0D1735" stroke-width="0.49697" stroke-miterlimit="10"/>
<path d="M58.0159 623.495H83.633" stroke="#0D1735" stroke-width="0.49697" stroke-miterlimit="10"/>
<path d="M93.8176 623.495H119.607" stroke="#0D1735" stroke-width="0.49697" stroke-miterlimit="10"/>
<path d="M117.831 470.342C117.831 470.342 123.523 479.069 125.631 479.301C128.977 479.665 145.238 467.387 145.238 467.387L153.501 476.869C153.501 476.869 137.916 495.244 125.041 496.059C114.916 496.702 102.79 480.646 102.79 480.646" fill="#F49C84"/>
<path d="M140.102 471.124C140.102 471.124 154.09 460.264 154.793 460.482C155.495 460.701 153.567 462.762 154.176 462.835C154.786 462.908 159.219 458.362 159.862 458.773C160.737 459.329 156.178 463.663 156.178 463.663C156.178 463.663 161.479 459.21 162.095 459.906C162.532 460.403 157.331 465.373 157.331 465.373C157.331 465.373 162.585 461.536 163.029 462.059C163.467 462.576 158.828 466.996 158.828 466.996C158.828 466.996 162.473 463.795 163.062 464.332C163.652 464.869 155.899 474.782 149.167 481.488" fill="#F49C84"/>
<path d="M153.189 463.438C153.189 463.438 152.175 465.969 150.896 467.917" stroke="#C45F47" stroke-width="0.49697" stroke-miterlimit="10"/>
<path d="M152.606 469.103C154.097 467.579 156.078 467.314 157.94 467.4" stroke="#C45F47" stroke-width="0.49697" stroke-miterlimit="10"/>
<path d="M82.6327 450.198C82.6327 450.198 84.667 452.769 88.4705 453.094C92.274 453.419 94.6263 451.398 94.6263 451.398C94.6263 451.398 106.653 457.461 110.052 482.727C113.452 507.993 113.776 521.212 113.776 521.212H60.0239C60.0239 521.212 53.285 457.958 82.6327 450.205V450.198Z" fill="#2B88F7"/>
<path d="M94.6262 451.398C98.0321 451.398 102.995 452.743 106.229 455.049C113.16 459.985 115.28 465.71 121.734 474.484L106.169 485.47L94.6262 451.398Z" fill="#2B88F7"/>
<path d="M84.7729 536.081L61.4683 524.711L76.6822 493.269L99.9868 504.64L84.7729 536.081Z" fill="#FFEFAB"/>
<path d="M83.3315 494.702L95.4453 500.611C95.7133 500.741 95.8262 501.069 95.6954 501.337L94.8269 503.118L81.7304 496.73L82.599 494.95C82.7297 494.682 83.0575 494.569 83.3255 494.7L83.3315 494.702Z" fill="#173789"/>
<path d="M90.8092 494.733C89.7159 494.203 88.437 494.588 87.9401 495.602C87.4497 496.615 87.9334 497.861 89.0201 498.398C90.1135 498.928 91.3923 498.544 91.8893 497.53C92.3797 496.516 91.8959 495.27 90.8092 494.733ZM89.4906 497.43C88.9738 497.179 88.7418 496.589 88.9804 496.105C89.2123 495.628 89.8219 495.442 90.3388 495.694C90.8556 495.946 91.0875 496.536 90.849 497.02C90.6171 497.497 90.0075 497.682 89.4906 497.43Z" fill="#173789"/>
<path d="M70.659 482.979C70.659 482.979 66.0868 493.103 65.7886 495.946C65.4905 498.789 83.8983 507.343 83.8983 507.343L79.0942 518.701C79.0942 518.701 49.647 511.478 46.9502 502.625C44.2533 493.779 53.6758 475.431 53.6758 475.431" fill="#F49C84"/>
<path d="M74.5022 502.579C74.5022 502.579 91.8034 510.431 91.8697 511.346C91.9293 512.26 88.6692 510.955 88.8613 511.697C89.0535 512.439 96.6406 515.248 96.455 516.183C96.2099 517.442 90.0143 514.725 90.0143 514.725C90.0143 514.725 96.7069 518.071 96.1767 519.105C95.799 519.834 90.1137 517.535 87.8343 516.932C90.2264 517.906 93.9106 519.94 93.5064 520.689C93.1022 521.431 89.1993 519.953 86.1446 518.972C87.9933 519.761 91.2799 521.378 90.9354 522.087C90.5908 522.796 76.8545 518.217 67.7898 515.083" fill="#F49C84"/>
<path d="M82.6327 450.198C74.9396 450.072 67.3856 452.398 63.0984 456.473C56.6643 462.589 50.7471 477.876 50.7471 477.876L71.2885 485.828L80.234 468.421" fill="#2B88F7"/>
<path d="M69.8574 485.47L76.7819 473.476" stroke="#273B7A" stroke-width="0.49697" stroke-miterlimit="10"/>
<path d="M71.8119 482.084L52.0325 474.086" stroke="#273B7A" stroke-width="0.49697" stroke-miterlimit="10"/>
<path d="M110.132 482.554C109.244 475.478 107.309 466.413 107.309 466.413" stroke="#273B7A" stroke-width="0.49697" stroke-miterlimit="10"/>
<path d="M109.641 479.076L119.833 472.019" stroke="#273B7A" stroke-width="0.49697" stroke-miterlimit="10"/>
<path d="M374.474 563.13C372.572 562.52 370.392 562.321 368.557 563.083C367.543 563.508 366.701 564.197 365.82 564.806C364.216 565.913 362.089 566.827 360.207 566.145C358.485 565.515 357.63 563.607 358.087 562.01C358.544 560.413 360.082 559.167 361.824 558.584C363.574 558.001 365.502 558.014 367.351 558.253" fill="#86ADA8"/>
<path d="M384.314 579.861C374.666 579.987 374.388 566.947 370.399 561.831C368.57 559.485 366.144 558.054 363.01 558.246C364.375 557.339 375.753 556.398 378.204 557.67C380.948 559.095 382.372 560.837 383.658 563.362C385.122 566.244 390.456 576.946 384.314 579.861Z" fill="#BCDDCB"/>
<path d="M365.853 557.862C368.716 557.743 371.558 558.332 374.01 559.863C376.303 561.294 378.098 563.402 379.463 565.714C381.014 568.338 382.015 571.227 382.803 574.156C383.757 577.694 384.393 581.312 384.95 584.93C385.573 588.979 386.023 593.067 386.865 597.076C386.911 597.288 387.216 597.196 387.19 596.99C386.653 593.293 386.116 589.602 385.553 585.911C384.99 582.22 384.354 578.403 383.406 574.726C381.988 569.226 379.689 563.335 374.838 559.976C372.201 558.147 369.04 557.418 365.853 557.657C365.721 557.67 365.714 557.869 365.853 557.869V557.862Z" fill="#8EBCA1"/>
<path d="M388.661 569.69C385.076 568.332 383.075 564.435 382.405 560.658C381.2 553.833 380.305 546.929 378.456 540.236C376.475 533.073 372.996 526.95 369.232 520.609C367.569 517.806 365.886 513.983 368.126 511.617C369.014 510.683 370.332 510.272 371.618 510.166C376.111 509.788 380.371 512.704 382.876 516.454C385.381 520.205 386.474 524.698 387.521 529.084C388.23 532.053 388.939 535.028 389.648 537.996C392.133 548.4 394.79 563.249 388.654 569.683" fill="#D6E8DD"/>
<path d="M410.58 547.909C412.913 546.458 415.808 546.107 418.532 546.471C421.255 546.836 423.846 547.85 426.357 548.97C427.438 549.447 428.524 549.957 429.704 550.076C430.877 550.195 432.169 549.851 432.878 548.91C433.706 547.81 433.487 546.173 432.686 545.06C431.877 543.947 430.605 543.264 429.319 542.781C426.079 541.555 422.554 541.323 419.088 541.27" fill="#86ADA8"/>
<path d="M368.948 510.968C374.686 514.473 379.39 523.598 382.306 531.463C384.639 537.771 386.282 544.305 387.269 550.957C389.39 565.204 390.357 585.977 389.833 600.37" stroke="#8EBCA1" stroke-width="0.49697" stroke-miterlimit="10"/>
<path d="M399.859 566.403C405.259 564.289 405.465 556.338 410.057 550.414C413.847 545.524 418.949 542.688 427.948 542.138C424.032 540.793 419.95 539.766 415.808 539.719C411.667 539.673 407.426 540.647 404.027 543.013C399.143 546.405 391.477 562.096 399.859 566.403Z" fill="#D6E8DD"/>
<path d="M423.005 540.687C416.882 540.216 410.799 542.781 406.459 547.041C399.766 553.615 399.859 563.766 399.236 572.46C398.428 583.751 397.712 595.049 397.103 606.353" stroke="#8EBCA1" stroke-width="0.49697" stroke-miterlimit="10"/>
<path d="M397.341 554.045C392.557 551.706 393.021 545.093 393.259 540.978C393.829 530.999 396.062 519.052 401.999 510.55C406.585 503.984 413.383 500.313 421.381 502.864C424.025 503.705 428.332 506.932 426.636 510.219C425.509 512.406 420.665 513.844 418.684 515.62C416.146 517.899 414.119 520.682 412.462 523.644C409.089 529.694 407.254 536.466 405.465 543.112C404.12 548.108 402.861 553.25 397.341 554.039" fill="#BCDDCB"/>
<path d="M420.884 565.661C422.647 565.164 425.781 564.939 427.61 565.303C428.438 565.741 429.956 566.668 431.009 568.378C432.222 570.346 432.381 575.919 428.644 574.958C427.087 574.56 426.371 572.824 425.437 571.512C424.27 569.875 422.461 568.716 420.493 568.338C418.525 567.96 416.412 568.365 414.722 569.451" fill="#86ADA8"/>
<path d="M429.346 572.539C429.28 570.2 428.107 568.285 426.424 566.728C425.509 565.88 424.496 565.038 423.449 564.356C422.501 563.74 421.328 563.58 420.222 563.567C418.87 563.554 417.379 563.653 416.074 564.031C415.981 564.058 416.007 564.183 416.094 564.19C417.207 564.29 418.353 564.044 419.473 563.991C420.593 563.938 421.819 563.985 422.859 564.482C423.369 564.727 423.82 565.105 424.27 565.449C424.761 565.814 425.238 566.191 425.708 566.589C426.537 567.298 427.332 568.073 427.935 568.988C428.637 570.054 429.015 571.26 429.074 572.539C429.081 572.711 429.353 572.718 429.346 572.539Z" fill="#8EBCA1"/>
<path d="M428.809 566.039C424.423 565.224 418.731 567.424 415.616 570.69C414.152 572.228 412.741 574.209 410.653 574.395C408.493 574.587 405.77 574.786 405.697 570.266C405.637 566.834 407.711 565.953 409.533 564.747C411.356 563.547 413.556 563.117 415.716 562.951C418.247 562.759 424.953 561.878 428.803 566.032" fill="#BCDDCB"/>
<path d="M422.667 563.382C418.26 563.362 414.165 565.171 411.031 568.226C409.189 570.021 407.665 572.155 406.565 574.474C405.544 576.628 404.829 578.914 404.272 581.226C403.45 584.645 402.947 588.137 402.576 591.63C402.032 596.699 401.741 601.801 401.648 606.896C401.635 607.645 401.615 608.394 401.641 609.143C401.641 609.342 401.933 609.335 401.946 609.143C402.158 606.333 402.178 603.497 402.331 600.681C402.463 598.282 402.629 595.884 402.847 593.491C403.185 589.847 403.643 586.203 404.405 582.624C404.922 580.206 405.571 577.8 406.538 575.521C407.439 573.401 408.645 571.439 410.156 569.697C412.913 566.516 416.604 564.236 420.825 563.713C421.441 563.64 422.057 563.6 422.68 563.594C422.826 563.594 422.826 563.368 422.68 563.368L422.667 563.382Z" fill="#8EBCA1"/>
<path d="M415.722 506.621C413.271 507.907 411.303 509.901 409.613 512.074C407.897 514.288 406.419 516.68 405.147 519.178C402.576 524.24 400.853 529.694 399.627 535.227C398.282 541.29 397.454 547.485 396.745 553.648C395.983 560.234 395.479 566.847 395.221 573.473C394.962 580.1 394.942 586.839 395.221 593.511C395.254 594.34 395.313 595.168 395.38 595.996C395.393 596.142 395.605 596.142 395.605 595.996C395.466 589.396 395.287 582.803 395.472 576.197C395.658 569.59 396.082 563.123 396.745 556.616C397.407 550.109 398.189 543.967 399.408 537.738C400.489 532.198 402.006 526.712 404.305 521.55C405.452 518.972 406.803 516.494 408.374 514.155C409.944 511.816 411.74 509.51 414.026 507.807C414.583 507.396 415.166 507.025 415.769 506.694C415.822 506.667 415.769 506.588 415.722 506.614V506.621Z" fill="#8EBCA1"/>
<path d="M415.808 594.366V604.511C415.808 626.974 407.426 641.433 407.426 641.433H381.471C381.471 641.433 373.089 626.974 373.089 604.511V594.366H415.808Z" fill="#F2F5F9"/>
<path d="M-0.752496 578.291C-1.91209 579.325 -3.0982 580.391 -3.82709 581.763C-4.55598 583.135 -4.75476 584.904 -3.91323 586.209C-3.62167 586.666 -3.21747 587.044 -2.78014 587.375C-1.39525 588.429 0.387223 589.005 2.11668 588.774C3.83951 588.542 5.46957 587.442 6.17196 585.851C6.58279 584.917 6.66893 583.877 6.94061 582.896C7.75564 579.947 10.5652 577.542 13.6265 577.622" fill="#86ADA8"/>
<path d="M24.4805 588.402C21.9957 590.549 17.5958 590.384 14.9056 588.714C11.1684 586.395 9.20035 582.167 5.07881 580.259C3.54151 579.55 1.78555 579.219 0.162115 579.682C-1.48783 580.159 -2.82633 581.399 -4.34375 582.227C-1.23603 575.163 7.1197 572.248 10.413 572.261C16.5423 572.287 22.4927 576.382 24.951 582.28C25.7925 584.294 26.0973 586.998 24.4805 588.396V588.402Z" fill="#BCDDCB"/>
<path d="M53.4438 563.872C55.7299 563.044 58.3407 562.779 60.534 563.812C61.7532 564.389 62.7604 565.323 63.8206 566.151C65.7422 567.656 68.3 568.895 70.5529 567.96C72.6203 567.106 73.6407 564.521 73.0974 562.355C72.554 560.188 70.7053 558.498 68.6114 557.716C66.5175 556.928 64.1983 556.941 61.9851 557.266" fill="#86ADA8"/>
<path d="M35.9704 570.406C31.1862 568.066 31.6501 561.453 31.8886 557.339C32.2663 550.765 32.5181 544.079 34.0422 537.652C36.1096 528.958 41.775 520.563 51.4494 518.999C54.2788 518.542 57.2606 518.35 60.0105 519.224C62.7604 520.099 65.2188 522.259 65.5766 524.91C65.6627 525.532 65.623 526.202 65.2718 526.732C64.8543 527.361 64.079 527.686 63.3634 528.017C56.3396 531.205 50.9723 537.274 48.9711 544.298C47.5531 549.281 47.7718 554.595 46.4267 559.591C45.0815 564.588 41.4835 569.617 35.9638 570.406" fill="#BCDDCB"/>
<path d="M41.6492 586.554C49.5941 586.673 49.508 579.45 51.4495 576.979C54.8488 572.639 55.2132 566.642 58.3342 562.109C60.5275 558.929 63.4364 556.987 67.1935 557.246C65.5568 556.013 51.9133 554.741 48.9779 556.464C45.6846 558.399 43.975 560.758 42.4377 564.177C40.6818 568.08 34.2874 582.591 41.6492 586.541" fill="#D6E8DD"/>
<path d="M63.7876 556.484C60.2227 556.199 56.6975 557.054 53.7554 559.114C50.8134 561.175 48.6731 564.084 47.043 567.205C45.1082 570.903 43.8823 574.925 42.9281 578.973C41.795 583.777 41.0396 588.661 40.3704 593.544C39.7011 598.428 39.1313 603.318 38.4421 608.195C38.3626 608.739 38.303 609.282 38.2301 609.819C38.2036 610.004 38.5216 610.051 38.5548 609.865C39.4096 605.16 39.9132 600.403 40.536 595.665C41.1589 590.927 41.8679 585.964 42.8817 581.173C43.763 577.019 44.8497 572.864 46.6189 568.994C48.1032 565.747 50.0712 562.62 52.8145 560.287C55.8957 557.663 59.7655 556.47 63.7876 556.689C63.9201 556.696 63.9201 556.49 63.7876 556.477V556.484Z" fill="#BCDDCB"/>
<path d="M25.3486 567.841C22.3138 567.596 19.8952 565.065 18.6495 562.288C15.7604 555.868 16.3104 548.492 12.2286 542.529C10.1082 539.434 7.21916 536.936 4.93972 533.961C1.7061 529.753 0.12242 523.776 2.60065 518.853C6.33786 511.432 14.2563 514.798 19.0669 519.125C25.7197 525.115 31.2129 533.848 32.7369 542.37C33.7375 547.962 35.288 561.984 25.3553 567.848" fill="#D6E8DD"/>
<path d="M7.74905 521.345C9.68392 521.384 11.4134 522.71 12.7651 523.975C14.4813 525.585 15.9126 527.5 17.112 529.515C18.4107 531.695 19.2721 534.041 20.0474 536.453C20.9751 539.315 21.7239 542.231 22.3467 545.179C23.5991 551.13 24.3147 557.18 24.8382 563.236C25.3948 569.604 25.8189 575.985 26.1303 582.366C26.4418 588.747 26.6074 595.181 26.7466 601.589C26.7664 602.384 26.7797 603.179 26.793 603.974C26.793 604.213 27.164 604.213 27.164 603.974C27.1839 597.427 27.0116 590.881 26.7134 584.334C26.4153 577.787 25.9912 571.254 25.4412 564.733C24.9243 558.624 24.2683 552.515 23.0822 546.498C22.4925 543.496 21.7702 540.514 20.8691 537.592C20.0938 535.081 19.2655 532.543 17.9933 530.23C16.8668 528.17 15.4753 526.228 13.8452 524.532C12.5001 523.134 10.8568 521.716 8.92853 521.225C8.5442 521.126 8.14663 521.073 7.74242 521.073C7.55689 521.073 7.55689 521.351 7.74242 521.358L7.74905 521.345Z" fill="#BCDDCB"/>
<path d="M-1.4481 552.024C-4.39017 551.845 -9.393 552.495 -12.1429 553.581C-13.2959 554.469 -15.3765 556.292 -16.4632 559.101C-17.5499 561.911 -17.0132 565.442 -14.8067 567.437C-13.0971 568.981 -10.6785 569.445 -8.40569 569.306C-7.2991 569.239 -6.16601 569.027 -5.21182 568.444C-2.77998 566.966 -2.21675 563.686 -0.845112 561.149C1.03012 557.683 4.82698 555.41 8.6901 555.443" fill="#86ADA8"/>
<path d="M-10.3274 563.634C-10.2413 561.261 -10.016 558.803 -8.88951 556.669C-7.63715 554.297 -5.32458 552.521 -2.81985 551.633C-2.01144 551.348 -1.16991 551.143 -0.321744 551.037C0.526419 550.931 1.34808 550.938 2.17636 550.832C2.29563 550.818 2.32876 550.659 2.20287 550.62C0.778216 550.176 -0.911482 550.48 -2.303 550.891C-3.78066 551.322 -5.15892 552.031 -6.37153 552.972C-8.41905 554.562 -9.76418 556.709 -10.2877 559.254C-10.5858 560.691 -10.6654 562.169 -10.6985 563.64C-10.6985 563.872 -10.3473 563.872 -10.334 563.64L-10.3274 563.634Z" fill="#3F6D54"/>
<path d="M-12.1362 553.581C-6.7557 552.581 -1.0306 554.781 2.79276 558.79C4.59511 560.678 6.31794 563.11 8.88231 563.342C11.5328 563.58 14.8725 563.826 14.9652 558.273C15.0381 554.059 12.487 552.972 10.2539 551.501C8.01426 550.03 5.31074 549.493 2.66024 549.294C-0.447486 549.062 -7.98818 549.281 -12.1362 553.581Z" fill="#BCDDCB"/>
<path d="M-5.86775 550.056C-2.97207 550.089 -0.102894 550.726 2.50786 552.004C4.70778 553.084 6.68241 554.575 8.39861 556.311C10.5588 558.498 12.328 561.062 13.6135 563.852C14.8327 566.496 15.6676 569.306 16.3303 572.128C17.3109 576.316 17.9073 580.59 18.3513 584.864C18.9874 590.98 19.2723 597.123 19.5042 603.265C19.5374 604.173 19.5639 605.087 19.6235 605.995C19.6368 606.187 19.9283 606.194 19.9283 605.995C20.0012 602.457 19.7958 598.899 19.6103 595.367C19.4512 592.392 19.2458 589.416 18.9609 586.448C18.5302 581.975 17.9537 577.502 16.9995 573.109C16.3435 570.101 15.4954 567.119 14.2629 564.296C13.0966 561.639 11.5262 559.181 9.58471 557.02C6.17218 553.21 1.59343 550.5 -3.54193 549.944C-4.31058 549.857 -5.08585 549.824 -5.86113 549.831C-6.0069 549.831 -6.0069 550.056 -5.86113 550.056H-5.86775Z" fill="#8EBCA1"/>
<path d="M5.98647 574.998C8.92191 574.64 12.0164 574.799 14.6934 576.157C16.9397 577.297 18.7553 579.139 20.1004 581.253C21.3395 583.201 22.1214 585.354 22.7311 587.568C23.4202 590.066 23.9039 592.617 24.1623 595.194C24.5069 598.633 24.3678 602.033 23.9304 605.452C23.9105 605.584 24.1358 605.618 24.169 605.485C24.8846 602.43 24.8912 599.183 24.6394 596.069C24.4141 593.346 23.9437 590.642 23.2413 588.005C22.0088 583.36 19.789 578.695 15.4422 576.223C12.5597 574.587 9.18696 574.375 5.97322 574.878C5.90033 574.892 5.92021 575.011 5.9931 575.004L5.98647 574.998Z" fill="#8EBCA1"/>
<path d="M54.3517 522.988C51.9 524.273 49.932 526.268 48.2423 528.441C46.5526 530.615 45.0484 533.047 43.7762 535.545C41.2052 540.607 39.4824 546.061 38.2565 551.594C36.9114 557.657 36.0831 563.852 35.3741 570.021C34.612 576.608 34.1084 583.221 33.85 589.847C33.5916 596.52 33.5717 603.212 33.85 609.885C33.8832 610.713 33.9428 611.541 34.0091 612.37C34.0223 612.516 34.2343 612.516 34.2343 612.37C34.0952 605.77 33.9163 599.177 34.1018 592.57C34.2874 585.964 34.7114 579.497 35.3741 572.99C36.0367 566.483 36.8186 560.34 38.0378 554.112C39.1179 548.572 40.6353 543.085 42.9346 537.924C44.081 535.346 45.4327 532.868 47.0032 530.529C48.5736 528.19 50.3693 525.884 52.6554 524.181C53.212 523.77 53.7951 523.399 54.3981 523.067C54.4511 523.041 54.3981 522.961 54.3517 522.988Z" fill="#8EBCA1"/>
<path d="M10.9761 602.516V608.904C10.9761 634.23 19.8553 641.433 19.8553 641.433H39.3962C39.3962 641.433 48.2687 634.23 48.2687 608.904V602.516H10.9761Z" fill="#F2F5F9"/>
<path d="M2.26929 642.069H421.328" stroke="#91AFE5" stroke-width="0.662627" stroke-linecap="round" stroke-linejoin="round"/>
<path d="M294.839 450.629L295.747 456.42C295.747 456.42 295.86 459.946 299.835 459.541C304.023 459.117 307.442 454.969 307.442 454.969L303.732 444.579" fill="#AF5743"/>
<path d="M293.414 436.581C290.903 439.351 287.404 450.569 292.169 452.471C296.529 454.214 302.658 452.531 304.295 445.964C306.011 439.066 300.021 429.292 293.421 436.575L293.414 436.581Z" fill="#AF5743"/>
<path d="M295.389 453.313C295.389 453.313 299.08 453.671 301.923 450.828" stroke="#752D21" stroke-width="0.49697" stroke-miterlimit="10"/>
<path d="M303.745 445.209C303.745 445.209 303.718 445.249 303.705 445.269C303.698 445.282 303.705 445.309 303.718 445.316C303.738 445.322 303.752 445.316 303.765 445.302C303.778 445.282 303.792 445.262 303.805 445.242C303.818 445.229 303.805 445.202 303.792 445.196C303.772 445.189 303.758 445.196 303.745 445.209Z" fill="#FF855A"/>
<path d="M293.805 443.36C293.805 443.36 292.241 445.547 292.401 446.057C292.613 446.739 293.805 446.567 293.805 446.567" stroke="#752D21" stroke-width="0.49697" stroke-miterlimit="10"/>
<path d="M296.542 444.062C296.489 444.301 296.595 444.533 296.774 444.573C296.959 444.612 297.145 444.453 297.205 444.208C297.258 443.97 297.152 443.738 296.973 443.698C296.787 443.658 296.602 443.817 296.549 444.062H296.542Z" fill="#4A1A1A"/>
<path d="M291.493 442.359C291.44 442.598 291.546 442.83 291.725 442.87C291.91 442.909 292.096 442.75 292.149 442.505C292.202 442.267 292.096 442.035 291.917 441.995C291.731 441.955 291.546 442.114 291.493 442.359Z" fill="#4A1A1A"/>
<path d="M294.395 448.363L291.334 447.508C291.334 447.508 290.949 449.688 292.328 450.119C294.017 450.642 294.395 448.369 294.395 448.369V448.363Z" fill="white"/>
<path d="M302.174 447.124C298.629 443.579 299.908 440.531 299.908 440.531C299.908 440.531 291.897 440.285 288.995 437.383C288.995 437.383 291.102 430.949 296.727 433.361C299.928 431.704 305.004 433.321 307.064 436.681C310.285 441.916 307.031 447.773 305.11 448.847" fill="#011E3B"/>
<path d="M304.255 435.985C303.725 435.057 304.209 433.586 304.692 432.924C305.587 431.691 307.416 431.26 308.787 431.936C310.152 432.612 310.921 434.302 310.563 435.786C310.212 437.27 308.794 438.423 307.27 438.503C306.667 438.536 305.985 438.357 305.7 437.834" fill="#011E3B"/>
<path d="M300.624 445.268C300.624 445.043 300.882 444.394 301.558 444.149C302.751 443.718 303.48 445.282 303.341 446.527C303.254 447.309 302.996 447.919 302.492 448.522C301.83 449.317 300.955 449.489 300.478 448.509" fill="#AF5743"/>
<path d="M296.529 441.988C298.437 441.862 298.795 443.771 298.795 443.771" stroke="#4A1A1A" stroke-width="0.331314" stroke-miterlimit="10" stroke-linecap="round"/>
<path d="M291.44 440.842C292.487 440.365 293.54 441.147 293.54 441.147" stroke="#4A1A1A" stroke-width="0.331314" stroke-miterlimit="10" stroke-linecap="round"/>
<path d="M305.474 542.622L297.052 631.798L290.552 639.113C290.552 639.113 312.829 638.179 313.558 637.437C314.293 636.688 313.273 631.612 313.273 631.612L328.248 541.734L305.467 542.622H305.474Z" fill="#AF5743"/>
<path d="M309.947 637.39L313.975 634.057L313.492 632.315L307.654 637.404L305.156 637.424L295.011 633.11L284.151 639.127C283.051 639.822 283.548 641.525 284.853 641.519L300.345 641.426L304.434 638.557H305.6L305.62 641.386L313.982 641.326L313.956 637.364L309.947 637.39Z" fill="#011E3B"/>
<path d="M331.35 542.622L335.339 631.798L328.838 639.113C328.838 639.113 351.116 638.179 351.845 637.437C352.58 636.688 351.56 631.612 351.56 631.612L354.124 541.734L331.343 542.622H331.35Z" fill="#AF5743"/>
<path d="M348.24 637.39L352.269 634.057L351.785 632.315L345.947 637.404L343.449 637.424L333.304 633.11L322.444 639.127C321.344 639.822 321.841 641.525 323.146 641.519L338.638 641.426L342.727 638.557H343.893L343.913 641.386L352.275 641.326L352.249 637.364L348.24 637.39Z" fill="#011E3B"/>
<path d="M340.368 497.901C343.37 499.995 346.378 502.718 349.274 507.337C358.597 522.18 356.085 558.16 356.085 558.16H298.523C298.523 558.16 304.142 512.253 307.72 501.996" fill="#223082"/>
<path d="M328.838 492.534C328.838 492.534 339.679 500.578 346.186 510.67C353.779 522.451 353.19 558.167 353.19 558.167" stroke="#121E3A" stroke-width="0.49697" stroke-miterlimit="10"/>
<path d="M327.46 503.911C334.908 510.497 341.024 503.911 341.024 503.911" stroke="#121E3A" stroke-width="0.49697" stroke-miterlimit="10"/>
<path d="M289.001 482.647C289.001 482.647 275.576 499.339 268.009 497.371C260.442 495.403 249.018 470.276 249.018 470.276L257.871 466.406C257.871 466.406 267.883 479.506 269.334 479.573C270.786 479.639 280.341 469.077 280.341 469.077" fill="#AF5743"/>
<path d="M260.217 469.408C260.217 469.408 252.636 458.329 252.066 458.329C251.49 458.329 252.444 460.31 251.974 460.224C251.503 460.138 249.27 455.718 248.694 455.87C247.918 456.076 250.052 460.012 250.052 460.012C250.052 460.012 249.442 459.263 248.819 459.634C248.376 459.899 248.74 461.092 248.74 461.092C248.74 461.092 248.084 460.635 247.633 460.926C247.183 461.211 247.534 462.238 247.534 462.238C247.534 462.238 246.924 461.383 246.408 462.013C245.924 462.609 247.918 468.527 251.351 475.093" fill="#AF5743"/>
<path d="M252.457 461.205C252.457 461.205 252.623 463.325 253.113 465.074" stroke="#752D21" stroke-width="0.49697" stroke-miterlimit="10"/>
<path d="M246.5 463.338C246.825 463.829 247.156 464.312 247.521 464.776C247.7 465.008 247.885 465.233 248.091 465.439C248.19 465.538 248.296 465.638 248.402 465.71C248.515 465.81 248.627 465.803 248.627 465.797C248.654 465.77 248.667 465.611 248.647 465.485C248.627 465.353 248.594 465.213 248.561 465.074C248.482 464.796 248.389 464.524 248.283 464.253C248.077 463.709 247.832 463.173 247.594 462.649L247.978 462.464C248.283 463.047 248.607 463.623 248.959 464.173C249.138 464.445 249.323 464.717 249.522 464.955C249.621 465.068 249.734 465.187 249.827 465.24C249.88 465.273 249.893 465.253 249.833 465.266C249.774 465.313 249.807 465.3 249.807 465.233C249.833 464.995 249.76 464.65 249.694 464.339C249.621 464.021 249.535 463.709 249.442 463.391C249.257 462.762 249.038 462.132 248.813 461.523L249.224 461.35C249.489 461.967 249.794 462.576 250.105 463.173C250.264 463.471 250.43 463.762 250.615 464.027C250.708 464.16 250.814 464.286 250.92 464.379C250.973 464.418 251.026 464.445 251.033 464.445C251.019 464.451 251.033 464.458 251.059 464.385C251.112 464.114 251.046 463.756 250.993 463.438C250.933 463.106 250.86 462.775 250.781 462.45C250.615 461.794 250.423 461.138 250.231 460.489C250.503 461.118 250.734 461.755 250.953 462.404C251.059 462.729 251.165 463.053 251.245 463.391C251.311 463.736 251.41 464.054 251.357 464.465C251.344 464.557 251.265 464.743 251.079 464.763C250.913 464.776 250.814 464.703 250.728 464.65C250.569 464.524 250.456 464.392 250.344 464.253C250.125 463.974 249.939 463.676 249.767 463.385C249.416 462.788 249.118 462.172 248.826 461.549L249.237 461.377C249.482 462 249.707 462.629 249.906 463.272C250.006 463.59 250.098 463.915 250.178 464.246C250.251 464.584 250.337 464.902 250.291 465.326C250.271 465.426 250.257 465.591 250.039 465.717C249.827 465.803 249.661 465.717 249.575 465.664C249.383 465.545 249.27 465.406 249.157 465.273C248.932 465.001 248.747 464.717 248.568 464.432C248.21 463.855 247.898 463.272 247.594 462.669L247.978 462.483C248.223 463.027 248.429 463.583 248.614 464.147C248.707 464.432 248.793 464.717 248.859 465.015C248.892 465.16 248.919 465.313 248.932 465.472C248.932 465.631 248.985 465.797 248.819 466.009C248.72 466.108 248.561 466.095 248.482 466.068C248.389 466.035 248.316 465.989 248.25 465.936C248.117 465.836 248.018 465.724 247.918 465.611C247.72 465.379 247.554 465.141 247.388 464.889C247.064 464.392 246.765 463.882 246.494 463.358L246.5 463.338Z" fill="#752D21"/>
<path d="M295.846 455.473C286.788 455.473 275.609 472.41 275.609 472.41L289.419 485.324L308.721 464.942" fill="#B9B5B2"/>
<path d="M308.681 453.69C308.681 453.69 316.653 453.326 321.781 456.884C331.303 463.497 340.368 497.901 340.368 497.901C330.813 507.84 307.005 511.65 307.005 511.65C307.005 511.65 299.597 498.232 294.031 492.666C288.464 487.1 286.894 481.753 289.187 470.349L308.681 453.69Z" fill="#B9B5B2"/>
<path d="M306.084 451.179L299.829 458.428L303.698 462.596C303.698 462.596 306.442 457.918 308.675 453.697L306.077 451.186L306.084 451.179Z" fill="white"/>
<path d="M299.828 458.428L296.171 462.543C296.171 462.543 294.196 459.131 293.805 455.731L295.468 454.651L299.835 458.435L299.828 458.428Z" fill="white"/>
<path d="M288.59 484.257C287.424 479.288 289.425 470.647 289.425 470.647" stroke="#846A6A" stroke-width="0.49697" stroke-miterlimit="10"/>
<path d="M322.722 483.741C314.764 513.777 303.599 532.642 303.599 532.642L293.905 528.382C303.725 497.523 306.389 479.699 306.389 479.699" fill="#AF5743"/>
<path d="M307.336 466.4L304.056 481.792L323.617 485.291C323.617 485.291 325.625 478.327 326.479 472.045" fill="#B9B5B2"/>
<path d="M323.345 485.318L325.903 475.08" stroke="#846A6A" stroke-width="0.49697" stroke-miterlimit="10"/>
<path d="M304.063 481.792L306.157 471.336" stroke="#846A6A" stroke-width="0.49697" stroke-miterlimit="10"/>
<path d="M308.728 522.637C308.728 522.637 303.937 534.438 301.922 534.438C299.908 534.438 282.229 534.551 277.12 534.551C277.22 533.636 281.447 531.808 285.032 530.708C287.172 530.052 293.911 528.382 293.911 528.382L297.668 516.063" fill="#AF5743"/>
</g>
</g>
<defs>
<linearGradient id="paint0_linear_483_4258" x1="256.95" y1="524.134" x2="256.95" y2="511.73" gradientUnits="userSpaceOnUse">
<stop stop-color="white" stop-opacity="0.1"/>
<stop offset="1" stop-color="white" stop-opacity="0.4"/>
</linearGradient>
<clipPath id="clip0_483_4258">
<rect width="417" height="704" fill="white"/>
</clipPath>
<clipPath id="clip1_483_4258">
<rect width="451.004" height="273.4" fill="white" transform="translate(-17 369)"/>
</clipPath>
</defs>
</svg>
